<svg width="90" height="90" viewBox="0 0 90 90" fill="none" xmlns="http://www.w3.org/2000/svg">
<g opacity="0.6">
<path d="M82.5 22.5V15H75V7.5H67.5V0H22.5V7.5H15V15H7.5V22.5H0V30V67.5H7.5V75H15V82.5H22.5V90H67.5V82.5H75V75H82.5V67.5H90V22.5H82.5Z" fill="#581468"/>
<path d="M75 30H67.5V37.5H75V30Z" fill="#631A75"/>
<path d="M60 45H52.5V52.5H60V45Z" fill="#470A56"/>
<path d="M37.5 37.5H30V45H37.5V37.5Z" fill="#631A75"/>
<path d="M45 67.5H30V75H45V67.5Z" fill="#470A56"/>
<path d="M37.5 60H30V75H37.5V60Z" fill="#470A56"/>
<path d="M37.5 75H30V82.5H37.5V75Z" fill="#631A75"/>
<path d="M75 60H67.5V67.5H75V60Z" fill="#631A75"/>
<path d="M75 75H60V82.5H75V75Z" fill="#470A56"/>
<path d="M52.5 7.5H45V15H52.5V7.5Z" fill="#631A75"/>
<path d="M90 22.5H82.5V45H90V22.5Z" fill="#631A75"/>
<path d="M82.5 15H75V22.5H82.5V15Z" fill="#631A75"/>
<path d="M45 45H37.5V52.5H45V45Z" fill="#631A75"/>
<path d="M30 30H22.5V37.5H30V30Z" fill="#470A56"/>
<path d="M22.5 7.5H15V15H22.5V7.5Z" fill="#631A75"/>
<path d="M67.5 0H22.5V7.5H67.5V0Z" fill="#631A75"/>
<path d="M60 15H52.5V22.5H60V15Z" fill="#631A75"/>
<path d="M22.5 45H15V52.5H22.5V45Z" fill="#470A56"/>
<path d="M22.5 22.5H15V30H22.5V22.5Z" fill="#631A75"/>
<path d="M14.55 15H7.05V22.5H14.55V15Z" fill="#631A75"/>
<path d="M52.5 52.5H45V67.5H52.5V52.5Z" fill="#470A56"/>
<path d="M52.5 0H37.5V7.5H52.5V0Z" fill="#581468"/>
<path d="M75 7.5H67.5V15H75V7.5Z" fill="#631A75"/>
<path d="M60 22.5H52.5V30H60V22.5Z" fill="#470A56"/>
<path d="M45 22.5H37.5V30H45V22.5Z" fill="#470A56"/>
<path d="M67.5 22.5H60V37.5H67.5V22.5Z" fill="#631A75"/>
<path d="M75 37.5H67.5V45H75V37.5Z" fill="#470A56"/>
<path d="M82.5 67.5H75V75H82.5V67.5Z" fill="#470A56"/>
<path d="M90 60H82.5V67.5H90V60Z" fill="#470A56"/>
<path d="M30 52.5H22.5V60H30V52.5Z" fill="#631A75"/>
<path d="M22.5 37.5H15V45H22.5V37.5Z" fill="#631A75"/>
<path d="M60 37.5H52.5V45H60V37.5Z" fill="#631A75"/>
<path d="M7.5 30H0V67.5H7.5V30Z" fill="#470A56"/>
<path d="M67.5 60H60V67.5H67.5V60Z" fill="#470A56"/>
<path d="M22.5 67.5H7.5V75H22.5V67.5Z" fill="#470A56"/>
<path d="M15 60H0V67.5H15V60Z" fill="#470A56"/>
<path d="M22.5 52.5H15V60H22.5V52.5Z" fill="#470A56"/>
<path d="M30 75H15V82.5H30V75Z" fill="#470A56"/>
<path d="M67.5 82.5H22.5V90H67.5V82.5Z" fill="#470A56"/>
</g>
</svg>
