<svg width="202" height="344" viewBox="0 0 202 344" fill="none" xmlns="http://www.w3.org/2000/svg">
<g opacity="0.35">
<path d="M4.87288 329.662L-4.73099 325.084L-9.30909 334.688L0.29478 339.266L4.87288 329.662Z" fill="#540095"/>
<path d="M-4.73099 325.084L-14.3349 320.506L-18.913 330.11L-9.30909 334.688L-4.73099 325.084Z" fill="#540095"/>
<path d="M-14.3349 320.506L-23.9387 315.928L-28.5168 325.532L-18.913 330.11L-14.3349 320.506Z" fill="#540095"/>
<path d="M-23.9387 315.928L-33.5426 311.35L-38.1207 320.953L-28.5168 325.532L-23.9387 315.928Z" fill="#540095"/>
<path d="M-33.5426 311.35L-43.1465 306.771L-47.7246 316.375L-38.1207 320.953L-33.5426 311.35Z" fill="#540095"/>
<path d="M-43.1465 306.771L-52.7504 302.193L-57.3285 311.797L-47.7246 316.375L-43.1465 306.771Z" fill="#540095"/>
<path d="M-52.7504 302.193L-62.3543 297.615L-66.9324 307.219L-57.3285 311.797L-52.7504 302.193Z" fill="#540095"/>
<path d="M-62.3543 297.615L-71.9582 293.037L-76.5363 302.641L-66.9324 307.219L-62.3543 297.615Z" fill="#540095"/>
<path d="M-71.9582 293.037L-81.562 288.459L-86.1401 298.063L-76.5363 302.641L-71.9582 293.037Z" fill="#5B0099"/>
<path d="M38.2627 333.792L28.6588 329.214L24.0807 338.818L33.6845 343.396L38.2627 333.792Z" fill="#5A1E78"/>
<path d="M28.6588 329.214L19.0549 324.636L14.4768 334.24L24.0807 338.818L28.6588 329.214Z" fill="#540095"/>
<path d="M19.0549 324.636L9.45101 320.058L4.87288 329.662L14.4768 334.24L19.0549 324.636Z" fill="#540095"/>
<path d="M9.45101 320.058L-0.152861 315.48L-4.73099 325.084L4.87288 329.662L9.45101 320.058Z" fill="#540095"/>
<path d="M-0.152861 315.48L-9.75674 310.902L-14.3349 320.506L-4.73099 325.084L-0.152861 315.48Z" fill="#540095"/>
<path d="M-9.75674 310.902L-19.3606 306.324L-23.9387 315.928L-14.3349 320.506L-9.75674 310.902Z" fill="#540095"/>
<path d="M-19.3606 306.324L-28.9645 301.746L-33.5426 311.35L-23.9387 315.928L-19.3606 306.324Z" fill="#540095"/>
<path d="M-28.9645 301.746L-38.5684 297.168L-43.1465 306.771L-33.5426 311.35L-28.9645 301.746Z" fill="#540095"/>
<path d="M-38.5684 297.168L-48.1723 292.589L-52.7504 302.193L-43.1465 306.771L-38.5684 297.168Z" fill="#540095"/>
<path d="M-48.1723 292.589L-57.7761 288.011L-62.3543 297.615L-52.7504 302.193L-48.1723 292.589Z" fill="#540095"/>
<path d="M-57.7761 288.011L-67.38 283.433L-71.9582 293.037L-62.3543 297.615L-57.7761 288.011Z" fill="#540095"/>
<path d="M-67.38 283.433L-76.9839 278.855L-81.562 288.459L-71.9582 293.037L-67.38 283.433Z" fill="#38005D"/>
<path d="M-76.9839 278.855L-86.5878 274.277L-91.1659 283.881L-81.562 288.459L-76.9839 278.855Z" fill="#540095"/>
<path d="M-86.5878 274.277L-96.1917 269.699L-100.77 279.303L-91.1659 283.881L-86.5878 274.277Z" fill="#540095"/>
<path d="M52.4446 328.767L42.8408 324.189L38.2627 333.792L47.8665 338.371L52.4446 328.767Z" fill="#38005D"/>
<path d="M42.8408 324.189L33.2369 319.61L28.6588 329.214L38.2627 333.792L42.8408 324.189Z" fill="#38005D"/>
<path d="M33.2369 319.61L23.633 315.032L19.0549 324.636L28.6588 329.214L33.2369 319.61Z" fill="#540095"/>
<path d="M23.633 315.032L14.0291 310.454L9.45101 320.058L19.0549 324.636L23.633 315.032Z" fill="#540095"/>
<path d="M14.0291 310.454L4.42525 305.876L-0.152861 315.48L9.45101 320.058L14.0291 310.454Z" fill="#540095"/>
<path d="M4.42525 305.876L-5.17863 301.298L-9.75674 310.902L-0.152861 315.48L4.42525 305.876Z" fill="#540095"/>
<path d="M-5.17863 301.298L-14.7825 296.72L-19.3606 306.324L-9.75674 310.902L-5.17863 301.298Z" fill="#540095"/>
<path d="M-14.7825 296.72L-24.3864 292.142L-28.9645 301.746L-19.3606 306.324L-14.7825 296.72Z" fill="#540095"/>
<path d="M-24.3864 292.142L-33.9903 287.564L-38.5684 297.168L-28.9645 301.746L-24.3864 292.142Z" fill="#540095"/>
<path d="M-33.9903 287.564L-43.5942 282.986L-48.1723 292.589L-38.5684 297.168L-33.9903 287.564Z" fill="#540095"/>
<path d="M-43.5942 282.986L-53.198 278.407L-57.7761 288.011L-48.1723 292.589L-43.5942 282.986Z" fill="#4F008C"/>
<path d="M-53.198 278.407L-62.8019 273.829L-67.38 283.433L-57.7761 288.011L-53.198 278.407Z" fill="#38005D"/>
<path d="M-62.8019 273.829L-72.4058 269.251L-76.9839 278.855L-67.38 283.433L-62.8019 273.829Z" fill="#38005D"/>
<path d="M-72.4058 269.251L-82.0097 264.673L-86.5878 274.277L-76.9839 278.855L-72.4058 269.251Z" fill="#38005D"/>
<path d="M-82.0097 264.673L-91.6135 260.095L-96.1917 269.699L-86.5878 274.277L-82.0097 264.673Z" fill="#540095"/>
<path d="M-91.6135 260.095L-101.217 255.517L-105.796 265.121L-96.1917 269.699L-91.6135 260.095Z" fill="#540095"/>
<path d="M-101.217 255.517L-110.821 250.939L-115.399 260.543L-105.796 265.121L-101.217 255.517Z" fill="#540095"/>
<path d="M76.2305 328.319L66.6266 323.741L62.0485 333.345L71.6524 337.923L76.2305 328.319Z" fill="#5A1E78"/>
<path d="M66.6266 323.741L57.0227 319.163L52.4446 328.767L62.0485 333.345L66.6266 323.741Z" fill="#38005D"/>
<path d="M57.0227 319.163L47.4189 314.585L42.8408 324.189L52.4446 328.767L57.0227 319.163Z" fill="#38005D"/>
<path d="M47.4189 314.585L37.815 310.007L33.2369 319.61L42.8408 324.189L47.4189 314.585Z" fill="#540095"/>
<path d="M37.815 310.007L28.2111 305.428L23.633 315.032L33.2369 319.61L37.815 310.007Z" fill="#540095"/>
<path d="M28.2111 305.428L18.6072 300.85L14.0291 310.454L23.633 315.032L28.2111 305.428Z" fill="#540095"/>
<path d="M18.6072 300.85L9.00337 296.272L4.42525 305.876L14.0291 310.454L18.6072 300.85Z" fill="#540095"/>
<path d="M9.00337 296.272L-0.600516 291.694L-5.17863 301.298L4.42525 305.876L9.00337 296.272Z" fill="#540095"/>
<path d="M-0.600516 291.694L-10.2044 287.116L-14.7825 296.72L-5.17863 301.298L-0.600516 291.694Z" fill="#540095"/>
<path d="M-10.2044 287.116L-19.8083 282.538L-24.3864 292.142L-14.7825 296.72L-10.2044 287.116Z" fill="#540095"/>
<path d="M-19.8083 282.538L-29.4121 277.96L-33.9903 287.564L-24.3864 292.142L-19.8083 282.538Z" fill="#540095"/>
<path d="M-29.4121 277.96L-39.016 273.382L-43.5942 282.986L-33.9903 287.564L-29.4121 277.96Z" fill="#540095"/>
<path d="M-39.016 273.382L-48.6199 268.804L-53.198 278.407L-43.5942 282.986L-39.016 273.382Z" fill="#4C0086"/>
<path d="M-48.6199 268.804L-58.2238 264.225L-62.8019 273.829L-53.198 278.407L-48.6199 268.804Z" fill="#38005D"/>
<path d="M-58.2238 264.225L-67.8277 259.647L-72.4058 269.251L-62.8019 273.829L-58.2238 264.225Z" fill="#38005D"/>
<path d="M-67.8277 259.647L-77.4316 255.069L-82.0097 264.673L-72.4058 269.251L-67.8277 259.647Z" fill="#430074"/>
<path d="M-77.4316 255.069L-87.0354 250.491L-91.6135 260.095L-82.0097 264.673L-77.4316 255.069Z" fill="#540095"/>
<path d="M-87.0354 250.491L-96.6393 245.913L-101.217 255.517L-91.6135 260.095L-87.0354 250.491Z" fill="#540095"/>
<path d="M-96.6393 245.913L-106.243 241.335L-110.821 250.939L-101.217 255.517L-96.6393 245.913Z" fill="#540095"/>
<path d="M-106.243 241.335L-115.847 236.757L-120.425 246.361L-110.821 250.939L-106.243 241.335Z" fill="#540095"/>
<path d="M90.4125 323.293L80.8086 318.715L76.2305 328.319L85.8344 332.897L90.4125 323.293Z" fill="#3F0062"/>
<path d="M80.8086 318.715L71.2047 314.137L66.6266 323.741L76.2305 328.319L80.8086 318.715Z" fill="#38005D"/>
<path d="M71.2047 314.137L61.6008 309.559L57.0227 319.163L66.6266 323.741L71.2047 314.137Z" fill="#38005D"/>
<path d="M61.6008 309.559L51.997 304.981L47.4189 314.585L57.0227 319.163L61.6008 309.559Z" fill="#540095"/>
<path d="M51.997 304.981L42.3931 300.403L37.815 310.007L47.4189 314.585L51.997 304.981Z" fill="#540095"/>
<path d="M42.3931 300.403L32.7892 295.825L28.2111 305.428L37.815 310.007L42.3931 300.403Z" fill="#540095"/>
<path d="M32.7892 295.825L23.1853 291.247L18.6072 300.85L28.2111 305.428L32.7892 295.825Z" fill="#540095"/>
<path d="M23.1853 291.247L13.5815 286.668L9.00337 296.272L18.6072 300.85L23.1853 291.247Z" fill="#540095"/>
<path d="M13.5815 286.668L3.97758 282.09L-0.600516 291.694L9.00337 296.272L13.5815 286.668Z" fill="#540095"/>
<path d="M3.97758 282.09L-5.62628 277.512L-10.2044 287.116L-0.600516 291.694L3.97758 282.09Z" fill="#540095"/>
<path d="M-5.62628 277.512L-15.2302 272.934L-19.8083 282.538L-10.2044 287.116L-5.62628 277.512Z" fill="#38005D"/>
<path d="M-15.2302 272.934L-24.834 268.356L-29.4121 277.96L-19.8083 282.538L-15.2302 272.934Z" fill="#38005D"/>
<path d="M-24.834 268.356L-34.4379 263.778L-39.016 273.382L-29.4121 277.96L-24.834 268.356Z" fill="#38005D"/>
<path d="M-34.4379 263.778L-44.0418 259.2L-48.6199 268.804L-39.016 273.382L-34.4379 263.778Z" fill="#540095"/>
<path d="M-44.0418 259.2L-53.6457 254.622L-58.2238 264.225L-48.6199 268.804L-44.0418 259.2Z" fill="#540095"/>
<path d="M-53.6457 254.622L-63.2496 250.044L-67.8277 259.647L-58.2238 264.225L-53.6457 254.622Z" fill="#540095"/>
<path d="M-63.2496 250.044L-72.8535 245.465L-77.4316 255.069L-67.8277 259.647L-63.2496 250.044Z" fill="#540095"/>
<path d="M-72.8535 245.465L-82.4573 240.887L-87.0354 250.491L-77.4316 255.069L-72.8535 245.465Z" fill="#540095"/>
<path d="M-82.4573 240.887L-92.0612 236.309L-96.6393 245.913L-87.0354 250.491L-82.4573 240.887Z" fill="#540095"/>
<path d="M-92.0612 236.309L-101.665 231.731L-106.243 241.335L-96.6393 245.913L-92.0612 236.309Z" fill="#540095"/>
<path d="M-101.665 231.731L-111.269 227.153L-115.847 236.757L-106.243 241.335L-101.665 231.731Z" fill="#540095"/>
<path d="M-111.269 227.153L-120.873 222.575L-125.451 232.179L-115.847 236.757L-111.269 227.153Z" fill="#540095"/>
<path d="M104.594 318.268L94.9906 313.689L90.4125 323.293L100.016 327.871L104.594 318.268Z" fill="#540095"/>
<path d="M94.9906 313.689L85.3867 309.111L80.8086 318.715L90.4125 323.293L94.9906 313.689Z" fill="#540095"/>
<path d="M85.3867 309.111L75.7829 304.533L71.2047 314.137L80.8086 318.715L85.3867 309.111Z" fill="#540095"/>
<path d="M75.7829 304.533L66.179 299.955L61.6008 309.559L71.2047 314.137L75.7829 304.533Z" fill="#540095"/>
<path d="M66.179 299.955L56.5751 295.377L51.997 304.981L61.6008 309.559L66.179 299.955Z" fill="#540095"/>
<path d="M56.5751 295.377L46.9712 290.799L42.3931 300.403L51.997 304.981L56.5751 295.377Z" fill="#540095"/>
<path d="M46.9712 290.799L37.3673 286.221L32.7892 295.825L42.3931 300.403L46.9712 290.799Z" fill="#540095"/>
<path d="M37.3673 286.221L27.7634 281.643L23.1853 291.247L32.7892 295.825L37.3673 286.221Z" fill="#540095"/>
<path d="M27.7634 281.643L18.1596 277.065L13.5815 286.668L23.1853 291.247L27.7634 281.643Z" fill="#540095"/>
<path d="M18.1596 277.065L8.5557 272.486L3.97758 282.09L13.5815 286.668L18.1596 277.065Z" fill="#540095"/>
<path d="M8.5557 272.486L-1.04817 267.908L-5.62628 277.512L3.97758 282.09L8.5557 272.486Z" fill="#540095"/>
<path d="M-1.04817 267.908L-10.6521 263.33L-15.2302 272.934L-5.62628 277.512L-1.04817 267.908Z" fill="#540095"/>
<path d="M-10.6521 263.33L-20.2559 258.752L-24.834 268.356L-15.2302 272.934L-10.6521 263.33Z" fill="#540095"/>
<path d="M-20.2559 258.752L-29.8598 254.174L-34.4379 263.778L-24.834 268.356L-20.2559 258.752Z" fill="#540095"/>
<path d="M-29.8598 254.174L-39.4637 249.596L-44.0418 259.2L-34.4379 263.778L-29.8598 254.174Z" fill="#540095"/>
<path d="M-39.4637 249.596L-49.0676 245.018L-53.6457 254.622L-44.0418 259.2L-39.4637 249.596Z" fill="#5A00A1"/>
<path d="M-49.0676 245.018L-58.6715 240.44L-63.2496 250.044L-53.6457 254.622L-49.0676 245.018Z" fill="#6A00BF"/>
<path d="M-58.6715 240.44L-68.2753 235.862L-72.8535 245.465L-63.2496 250.044L-58.6715 240.44Z" fill="#6B00C2"/>
<path d="M-68.2753 235.862L-77.8792 231.283L-82.4573 240.887L-72.8535 245.465L-68.2753 235.862Z" fill="#6100AE"/>
<path d="M-77.8792 231.283L-87.4831 226.705L-92.0612 236.309L-82.4573 240.887L-77.8792 231.283Z" fill="#540095"/>
<path d="M-87.4831 226.705L-97.087 222.127L-101.665 231.731L-92.0612 236.309L-87.4831 226.705Z" fill="#540095"/>
<path d="M-97.087 222.127L-106.691 217.549L-111.269 227.153L-101.665 231.731L-97.087 222.127Z" fill="#540095"/>
<path d="M-106.691 217.549L-116.295 212.971L-120.873 222.575L-111.269 227.153L-106.691 217.549Z" fill="#540095"/>
<path d="M-116.295 212.971L-125.899 208.393L-130.477 217.997L-120.873 222.575L-116.295 212.971Z" fill="#540095"/>
<path d="M118.776 313.242L109.173 308.664L104.594 318.268L114.198 322.846L118.776 313.242Z" fill="#38005D"/>
<path d="M109.173 308.664L99.5687 304.086L94.9906 313.689L104.594 318.268L109.173 308.664Z" fill="#540095"/>
<path d="M99.5687 304.086L89.9649 299.507L85.3867 309.111L94.9906 313.689L99.5687 304.086Z" fill="#540095"/>
<path d="M89.9649 299.507L80.361 294.929L75.7829 304.533L85.3867 309.111L89.9649 299.507Z" fill="#540095"/>
<path d="M80.361 294.929L70.7571 290.351L66.179 299.955L75.7829 304.533L80.361 294.929Z" fill="#540095"/>
<path d="M70.7571 290.351L61.1532 285.773L56.5751 295.377L66.179 299.955L70.7571 290.351Z" fill="#540095"/>
<path d="M61.1532 285.773L51.5493 281.195L46.9712 290.799L56.5751 295.377L61.1532 285.773Z" fill="#540095"/>
<path d="M51.5493 281.195L41.9454 276.617L37.3673 286.221L46.9712 290.799L51.5493 281.195Z" fill="#540095"/>
<path d="M41.9454 276.617L32.3416 272.039L27.7634 281.643L37.3673 286.221L41.9454 276.617Z" fill="#540095"/>
<path d="M32.3416 272.039L22.7377 267.461L18.1596 277.065L27.7634 281.643L32.3416 272.039Z" fill="#540095"/>
<path d="M22.7377 267.461L13.1338 262.883L8.5557 272.486L18.1596 277.065L22.7377 267.461Z" fill="#540095"/>
<path d="M13.1338 262.883L3.52995 258.304L-1.04817 267.908L8.5557 272.486L13.1338 262.883Z" fill="#540095"/>
<path d="M3.52995 258.304L-6.07395 253.726L-10.6521 263.33L-1.04817 267.908L3.52995 258.304Z" fill="#540095"/>
<path d="M-6.07395 253.726L-15.6778 249.148L-20.2559 258.752L-10.6521 263.33L-6.07395 253.726Z" fill="#6F00C9"/>
<path d="M-15.6778 249.148L-25.2817 244.57L-29.8598 254.174L-20.2559 258.752L-15.6778 249.148Z" fill="#6F00C9"/>
<path d="M-25.2817 244.57L-34.8856 239.992L-39.4637 249.596L-29.8598 254.174L-25.2817 244.57Z" fill="#6F00C9"/>
<path d="M-34.8856 239.992L-44.4895 235.414L-49.0676 245.018L-39.4637 249.596L-34.8856 239.992Z" fill="#6F00C9"/>
<path d="M-44.4895 235.414L-54.0933 230.836L-58.6715 240.44L-49.0676 245.018L-44.4895 235.414Z" fill="#6F00C9"/>
<path d="M-54.0933 230.836L-63.6972 226.258L-68.2753 235.862L-58.6715 240.44L-54.0933 230.836Z" fill="#6F00C9"/>
<path d="M-63.6972 226.258L-73.3011 221.68L-77.8792 231.283L-68.2753 235.862L-63.6972 226.258Z" fill="#6F00C9"/>
<path d="M-73.3011 221.68L-82.905 217.101L-87.4831 226.705L-77.8792 231.283L-73.3011 221.68Z" fill="#6F00C9"/>
<path d="M-82.905 217.101L-92.5089 212.523L-97.087 222.127L-87.4831 226.705L-82.905 217.101Z" fill="#6F00C9"/>
<path d="M-92.5089 212.523L-102.113 207.945L-106.691 217.549L-97.087 222.127L-92.5089 212.523Z" fill="#6F00C9"/>
<path d="M-102.113 207.945L-111.717 203.367L-116.295 212.971L-106.691 217.549L-102.113 207.945Z" fill="#56009A"/>
<path d="M-111.717 203.367L-121.32 198.789L-125.899 208.393L-116.295 212.971L-111.717 203.367Z" fill="#540095"/>
<path d="M-121.32 198.789L-130.924 194.211L-135.502 203.815L-125.899 208.393L-121.32 198.789Z" fill="#540095"/>
<path d="M123.355 303.638L113.751 299.06L109.173 308.664L118.776 313.242L123.355 303.638Z" fill="#540095"/>
<path d="M113.751 299.06L104.147 294.482L99.5687 304.086L109.173 308.664L113.751 299.06Z" fill="#540095"/>
<path d="M104.147 294.482L94.543 289.904L89.9649 299.507L99.5687 304.086L104.147 294.482Z" fill="#540095"/>
<path d="M94.543 289.904L84.9391 285.325L80.361 294.929L89.9649 299.507L94.543 289.904Z" fill="#540095"/>
<path d="M84.9391 285.325L75.3352 280.747L70.7571 290.351L80.361 294.929L84.9391 285.325Z" fill="#540095"/>
<path d="M75.3352 280.747L65.7313 276.169L61.1532 285.773L70.7571 290.351L75.3352 280.747Z" fill="#540095"/>
<path d="M65.7313 276.169L56.1274 271.591L51.5493 281.195L61.1532 285.773L65.7313 276.169Z" fill="#540095"/>
<path d="M56.1274 271.591L46.5236 267.013L41.9454 276.617L51.5493 281.195L56.1274 271.591Z" fill="#540095"/>
<path d="M46.5236 267.013L36.9197 262.435L32.3416 272.039L41.9454 276.617L46.5236 267.013Z" fill="#540095"/>
<path d="M36.9197 262.435L27.3158 257.857L22.7377 267.461L32.3416 272.039L36.9197 262.435Z" fill="#540095"/>
<path d="M27.3158 257.857L17.7119 253.279L13.1338 262.883L22.7377 267.461L27.3158 257.857Z" fill="#540095"/>
<path d="M17.7119 253.279L8.10806 248.701L3.52995 258.304L13.1338 262.883L17.7119 253.279Z" fill="#6F00C9"/>
<path d="M8.10806 248.701L-1.49583 244.122L-6.07395 253.726L3.52995 258.304L8.10806 248.701Z" fill="#6F00C9"/>
<path d="M-1.49583 244.122L-11.0997 239.544L-15.6778 249.148L-6.07395 253.726L-1.49583 244.122Z" fill="#6F00C9"/>
<path d="M-11.0997 239.544L-20.7036 234.966L-25.2817 244.57L-15.6778 249.148L-11.0997 239.544Z" fill="#6F00C9"/>
<path d="M-20.7036 234.966L-30.3075 230.388L-34.8856 239.992L-25.2817 244.57L-20.7036 234.966Z" fill="#6F00C9"/>
<path d="M-30.3075 230.388L-39.9114 225.81L-44.4895 235.414L-34.8856 239.992L-30.3075 230.388Z" fill="#6F00C9"/>
<path d="M-39.9114 225.81L-49.5152 221.232L-54.0933 230.836L-44.4895 235.414L-39.9114 225.81Z" fill="#6F00C9"/>
<path d="M-49.5152 221.232L-59.1191 216.654L-63.6972 226.258L-54.0933 230.836L-49.5152 221.232Z" fill="#6F00C9"/>
<path d="M-59.1191 216.654L-68.723 212.076L-73.3011 221.68L-63.6972 226.258L-59.1191 216.654Z" fill="#6F00C9"/>
<path d="M-68.723 212.076L-78.3269 207.498L-82.905 217.101L-73.3011 221.68L-68.723 212.076Z" fill="#6F00C9"/>
<path d="M-78.3269 207.498L-87.9308 202.919L-92.5089 212.523L-82.905 217.101L-78.3269 207.498Z" fill="#6F00C9"/>
<path d="M-87.9308 202.919L-97.5346 198.341L-102.113 207.945L-92.5089 212.523L-87.9308 202.919Z" fill="#6F00C9"/>
<path d="M-97.5346 198.341L-107.139 193.763L-111.717 203.367L-102.113 207.945L-97.5346 198.341Z" fill="#6F00C9"/>
<path d="M-107.139 193.763L-116.742 189.185L-121.32 198.789L-111.717 203.367L-107.139 193.763Z" fill="#6F00C9"/>
<path d="M-116.742 189.185L-126.346 184.607L-130.924 194.211L-121.32 198.789L-116.742 189.185Z" fill="#540095"/>
<path d="M-126.346 184.607L-135.95 180.029L-140.528 189.633L-130.924 194.211L-126.346 184.607Z" fill="#540095"/>
<path d="M137.537 298.612L127.933 294.034L123.355 303.638L132.958 308.216L137.537 298.612Z" fill="#540095"/>
<path d="M127.933 294.034L118.329 289.456L113.751 299.06L123.355 303.638L127.933 294.034Z" fill="#540095"/>
<path d="M118.329 289.456L108.725 284.878L104.147 294.482L113.751 299.06L118.329 289.456Z" fill="#540095"/>
<path d="M108.725 284.878L99.1211 280.3L94.543 289.904L104.147 294.482L108.725 284.878Z" fill="#540095"/>
<path d="M99.1211 280.3L89.5172 275.722L84.9391 285.325L94.543 289.904L99.1211 280.3Z" fill="#540095"/>
<path d="M89.5172 275.722L79.9133 271.143L75.3352 280.747L84.9391 285.325L89.5172 275.722Z" fill="#540095"/>
<path d="M79.9133 271.143L70.3094 266.565L65.7313 276.169L75.3352 280.747L79.9133 271.143Z" fill="#540095"/>
<path d="M70.3094 266.565L60.7056 261.987L56.1274 271.591L65.7313 276.169L70.3094 266.565Z" fill="#540095"/>
<path d="M60.7056 261.987L51.1017 257.409L46.5236 267.013L56.1274 271.591L60.7056 261.987Z" fill="#540095"/>
<path d="M51.1017 257.409L41.4978 252.831L36.9197 262.435L46.5236 267.013L51.1017 257.409Z" fill="#540095"/>
<path d="M41.4978 252.831L31.8939 248.253L27.3158 257.857L36.9197 262.435L41.4978 252.831Z" fill="#540096"/>
<path d="M31.8939 248.253L22.29 243.675L17.7119 253.279L27.3158 257.857L31.8939 248.253Z" fill="#6F00C9"/>
<path d="M22.29 243.675L12.6862 239.097L8.10806 248.701L17.7119 253.279L22.29 243.675Z" fill="#6F00C9"/>
<path d="M12.6862 239.097L3.08227 234.519L-1.49583 244.122L8.10806 248.701L12.6862 239.097Z" fill="#6F00C9"/>
<path d="M3.08227 234.519L-6.52159 229.94L-11.0997 239.544L-1.49583 244.122L3.08227 234.519Z" fill="#6F00C9"/>
<path d="M-6.52159 229.94L-16.1255 225.362L-20.7036 234.966L-11.0997 239.544L-6.52159 229.94Z" fill="#6F00C9"/>
<path d="M-16.1255 225.362L-25.7294 220.784L-30.3075 230.388L-20.7036 234.966L-16.1255 225.362Z" fill="#6F00C9"/>
<path d="M-25.7294 220.784L-35.3332 216.206L-39.9114 225.81L-30.3075 230.388L-25.7294 220.784Z" fill="#6F00C9"/>
<path d="M-35.3332 216.206L-44.9371 211.628L-49.5152 221.232L-39.9114 225.81L-35.3332 216.206Z" fill="#6F00C9"/>
<path d="M-44.9371 211.628L-54.541 207.05L-59.1191 216.654L-49.5152 221.232L-44.9371 211.628Z" fill="#6F00C9"/>
<path d="M-54.541 207.05L-64.1449 202.472L-68.723 212.076L-59.1191 216.654L-54.541 207.05Z" fill="#6F00C9"/>
<path d="M-64.1449 202.472L-73.7488 197.894L-78.3269 207.498L-68.723 212.076L-64.1449 202.472Z" fill="#6F00C9"/>
<path d="M-73.7488 197.894L-83.3526 193.316L-87.9308 202.919L-78.3269 207.498L-73.7488 197.894Z" fill="#6F00C9"/>
<path d="M-83.3526 193.316L-92.9565 188.737L-97.5346 198.341L-87.9308 202.919L-83.3526 193.316Z" fill="#6F00C9"/>
<path d="M-92.9565 188.737L-102.56 184.159L-107.139 193.763L-97.5346 198.341L-92.9565 188.737Z" fill="#6F00C9"/>
<path d="M-102.56 184.159L-112.164 179.581L-116.742 189.185L-107.139 193.763L-102.56 184.159Z" fill="#6F00C9"/>
<path d="M-112.164 179.581L-121.768 175.003L-126.346 184.607L-116.742 189.185L-112.164 179.581Z" fill="#6F00C9"/>
<path d="M-121.768 175.003L-131.372 170.425L-135.95 180.029L-126.346 184.607L-121.768 175.003Z" fill="#6F00C9"/>
<path d="M142.115 289.008L132.511 284.43L127.933 294.034L137.537 298.612L142.115 289.008Z" fill="#540095"/>
<path d="M132.511 284.43L122.907 279.852L118.329 289.456L127.933 294.034L132.511 284.43Z" fill="#540095"/>
<path d="M122.907 279.852L113.303 275.274L108.725 284.878L118.329 289.456L122.907 279.852Z" fill="#540095"/>
<path d="M113.303 275.274L103.699 270.696L99.1211 280.3L108.725 284.878L113.303 275.274Z" fill="#540095"/>
<path d="M103.699 270.696L94.0953 266.118L89.5172 275.722L99.1211 280.3L103.699 270.696Z" fill="#540095"/>
<path d="M94.0953 266.118L84.4914 261.54L79.9133 271.143L89.5172 275.722L94.0953 266.118Z" fill="#540095"/>
<path d="M84.4914 261.54L74.8875 256.961L70.3094 266.565L79.9133 271.143L84.4914 261.54Z" fill="#540095"/>
<path d="M74.8875 256.961L65.2837 252.383L60.7056 261.987L70.3094 266.565L74.8875 256.961Z" fill="#540095"/>
<path d="M65.2837 252.383L55.6798 247.805L51.1017 257.409L60.7056 261.987L65.2837 252.383Z" fill="#540095"/>
<path d="M55.6798 247.805L46.0759 243.227L41.4978 252.831L51.1017 257.409L55.6798 247.805Z" fill="#5E00AA"/>
<path d="M46.0759 243.227L36.472 238.649L31.8939 248.253L41.4978 252.831L46.0759 243.227Z" fill="#6F00C9"/>
<path d="M36.472 238.649L26.8682 234.071L22.29 243.675L31.8939 248.253L36.472 238.649Z" fill="#4B007F"/>
<path d="M26.8682 234.071L17.2643 229.493L12.6862 239.097L22.29 243.675L26.8682 234.071Z" fill="#4B007F"/>
<path d="M17.2643 229.493L7.66039 224.915L3.08227 234.519L12.6862 239.097L17.2643 229.493Z" fill="#4B007F"/>
<path d="M7.66039 224.915L-1.94348 220.337L-6.52159 229.94L3.08227 234.519L7.66039 224.915Z" fill="#6E00C8"/>
<path d="M-1.94348 220.337L-11.5474 215.758L-16.1255 225.362L-6.52159 229.94L-1.94348 220.337Z" fill="#6F00C9"/>
<path d="M-11.5474 215.758L-21.1512 211.18L-25.7294 220.784L-16.1255 225.362L-11.5474 215.758Z" fill="#6F00C9"/>
<path d="M-21.1512 211.18L-30.7551 206.602L-35.3332 216.206L-25.7294 220.784L-21.1512 211.18Z" fill="#6F00C9"/>
<path d="M-30.7551 206.602L-40.359 202.024L-44.9371 211.628L-35.3332 216.206L-30.7551 206.602Z" fill="#6F00C9"/>
<path d="M-40.359 202.024L-49.9629 197.446L-54.541 207.05L-44.9371 211.628L-40.359 202.024Z" fill="#6F00C9"/>
<path d="M-49.9629 197.446L-59.5668 192.868L-64.1449 202.472L-54.541 207.05L-49.9629 197.446Z" fill="#6F00C9"/>
<path d="M-59.5668 192.868L-69.1706 188.29L-73.7488 197.894L-64.1449 202.472L-59.5668 192.868Z" fill="#6F00C9"/>
<path d="M-69.1706 188.29L-78.7745 183.712L-83.3526 193.316L-73.7488 197.894L-69.1706 188.29Z" fill="#6F00C9"/>
<path d="M-78.7745 183.712L-88.3784 179.134L-92.9565 188.737L-83.3526 193.316L-78.7745 183.712Z" fill="#6F00C9"/>
<path d="M-88.3784 179.134L-97.9823 174.555L-102.56 184.159L-92.9565 188.737L-88.3784 179.134Z" fill="#6F00C9"/>
<path d="M-97.9823 174.555L-107.586 169.977L-112.164 179.581L-102.56 184.159L-97.9823 174.555Z" fill="#6F00C9"/>
<path d="M-107.586 169.977L-117.19 165.399L-121.768 175.003L-112.164 179.581L-107.586 169.977Z" fill="#6F00C9"/>
<path d="M-117.19 165.399L-126.794 160.821L-131.372 170.425L-121.768 175.003L-117.19 165.399Z" fill="#6F00C9"/>
<path d="M-126.794 160.821L-136.398 156.243L-140.976 165.847L-131.372 170.425L-126.794 160.821Z" fill="#6F00C9"/>
<path d="M146.693 279.404L137.089 274.826L132.511 284.43L142.115 289.008L146.693 279.404Z" fill="#540095"/>
<path d="M137.089 274.826L127.485 270.248L122.907 279.852L132.511 284.43L137.089 274.826Z" fill="#540095"/>
<path d="M127.485 270.248L117.881 265.67L113.303 275.274L122.907 279.852L127.485 270.248Z" fill="#540095"/>
<path d="M117.881 265.67L108.277 261.092L103.699 270.696L113.303 275.274L117.881 265.67Z" fill="#540095"/>
<path d="M108.277 261.092L98.6734 256.514L94.0953 266.118L103.699 270.696L108.277 261.092Z" fill="#540095"/>
<path d="M98.6734 256.514L89.0695 251.936L84.4914 261.54L94.0953 266.118L98.6734 256.514Z" fill="#540095"/>
<path d="M89.0695 251.936L79.4656 247.358L74.8875 256.961L84.4914 261.54L89.0695 251.936Z" fill="#540095"/>
<path d="M79.4656 247.358L69.8618 242.779L65.2837 252.383L74.8875 256.961L79.4656 247.358Z" fill="#540095"/>
<path d="M69.8618 242.779L60.2579 238.201L55.6798 247.805L65.2837 252.383L69.8618 242.779Z" fill="#6800BD"/>
<path d="M60.2579 238.201L50.654 233.623L46.0759 243.227L55.6798 247.805L60.2579 238.201Z" fill="#6000AA"/>
<path d="M50.654 233.623L41.0501 229.045L36.472 238.649L46.0759 243.227L50.654 233.623Z" fill="#4B007F"/>
<path d="M41.0501 229.045L31.4463 224.467L26.8682 234.071L36.472 238.649L41.0501 229.045Z" fill="#4B007F"/>
<path d="M31.4463 224.467L21.8424 219.889L17.2643 229.493L26.8682 234.071L31.4463 224.467Z" fill="#4B007F"/>
<path d="M21.8424 219.889L12.2385 215.311L7.66039 224.915L17.2643 229.493L21.8424 219.889Z" fill="#4B007F"/>
<path d="M12.2385 215.311L2.63463 210.733L-1.94348 220.337L7.66039 224.915L12.2385 215.311Z" fill="#4B007F"/>
<path d="M2.63463 210.733L-6.96926 206.155L-11.5474 215.758L-1.94348 220.337L2.63463 210.733Z" fill="#6F00C9"/>
<path d="M-6.96926 206.155L-16.5731 201.576L-21.1512 211.18L-11.5474 215.758L-6.96926 206.155Z" fill="#6F00C9"/>
<path d="M-16.5731 201.576L-26.177 196.998L-30.7551 206.602L-21.1512 211.18L-16.5731 201.576Z" fill="#6F00C9"/>
<path d="M-26.177 196.998L-35.7809 192.42L-40.359 202.024L-30.7551 206.602L-26.177 196.998Z" fill="#6F00C9"/>
<path d="M-35.7809 192.42L-45.3848 187.842L-49.9629 197.446L-40.359 202.024L-35.7809 192.42Z" fill="#6F00C9"/>
<path d="M-45.3848 187.842L-54.9887 183.264L-59.5668 192.868L-49.9629 197.446L-45.3848 187.842Z" fill="#6F00C9"/>
<path d="M-54.9887 183.264L-64.5925 178.686L-69.1706 188.29L-59.5668 192.868L-54.9887 183.264Z" fill="#6F00C9"/>
<path d="M-64.5925 178.686L-74.1964 174.108L-78.7745 183.712L-69.1706 188.29L-64.5925 178.686Z" fill="#6F00C9"/>
<path d="M-74.1964 174.108L-83.8003 169.53L-88.3784 179.134L-78.7745 183.712L-74.1964 174.108Z" fill="#6F00C9"/>
<path d="M-83.8003 169.53L-93.4042 164.952L-97.9823 174.555L-88.3784 179.134L-83.8003 169.53Z" fill="#6F00C9"/>
<path d="M-93.4042 164.952L-103.008 160.373L-107.586 169.977L-97.9823 174.555L-93.4042 164.952Z" fill="#6F00C9"/>
<path d="M-103.008 160.373L-112.612 155.795L-117.19 165.399L-107.586 169.977L-103.008 160.373Z" fill="#6F00C9"/>
<path d="M-112.612 155.795L-122.216 151.217L-126.794 160.821L-117.19 165.399L-112.612 155.795Z" fill="#6F00C9"/>
<path d="M-122.216 151.217L-131.82 146.639L-136.398 156.243L-126.794 160.821L-122.216 151.217Z" fill="#6F00C9"/>
<path d="M160.875 274.379L151.271 269.8L146.693 279.404L156.297 283.982L160.875 274.379Z" fill="#540095"/>
<path d="M151.271 269.8L141.667 265.222L137.089 274.826L146.693 279.404L151.271 269.8Z" fill="#540095"/>
<path d="M141.667 265.222L132.063 260.644L127.485 270.248L137.089 274.826L141.667 265.222Z" fill="#540095"/>
<path d="M132.063 260.644L122.459 256.066L117.881 265.67L127.485 270.248L132.063 260.644Z" fill="#540095"/>
<path d="M122.459 256.066L112.855 251.488L108.277 261.092L117.881 265.67L122.459 256.066Z" fill="#540095"/>
<path d="M112.855 251.488L103.252 246.91L98.6734 256.514L108.277 261.092L112.855 251.488Z" fill="#540095"/>
<path d="M103.252 246.91L93.6476 242.332L89.0695 251.936L98.6734 256.514L103.252 246.91Z" fill="#540095"/>
<path d="M93.6476 242.332L84.0438 237.754L79.4656 247.358L89.0695 251.936L93.6476 242.332Z" fill="#540095"/>
<path d="M84.0438 237.754L74.4399 233.176L69.8618 242.779L79.4656 247.358L84.0438 237.754Z" fill="#540095"/>
<path d="M74.4399 233.176L64.836 228.597L60.2579 238.201L69.8618 242.779L74.4399 233.176Z" fill="#6F00C9"/>
<path d="M64.836 228.597L55.2321 224.019L50.654 233.623L60.2579 238.201L64.836 228.597Z" fill="#4B007F"/>
<path d="M55.2321 224.019L45.6283 219.441L41.0501 229.045L50.654 233.623L55.2321 224.019Z" fill="#4B007F"/>
<path d="M45.6283 219.441L36.0244 214.863L31.4463 224.467L41.0501 229.045L45.6283 219.441Z" fill="#4B007F"/>
<path d="M36.0244 214.863L26.4205 210.285L21.8424 219.889L31.4463 224.467L36.0244 214.863Z" fill="#4B007F"/>
<path d="M26.4205 210.285L16.8166 205.707L12.2385 215.311L21.8424 219.889L26.4205 210.285Z" fill="#4B007F"/>
<path d="M16.8166 205.707L7.21274 201.129L2.63463 210.733L12.2385 215.311L16.8166 205.707Z" fill="#4B007F"/>
<path d="M7.21274 201.129L-2.39116 196.551L-6.96926 206.155L2.63463 210.733L7.21274 201.129Z" fill="#6F00C9"/>
<path d="M-2.39116 196.551L-11.995 191.973L-16.5731 201.576L-6.96926 206.155L-2.39116 196.551Z" fill="#6F00C9"/>
<path d="M-11.995 191.973L-21.5989 187.394L-26.177 196.998L-16.5731 201.576L-11.995 191.973Z" fill="#6F00C9"/>
<path d="M-21.5989 187.394L-31.2028 182.816L-35.7809 192.42L-26.177 196.998L-21.5989 187.394Z" fill="#6F00C9"/>
<path d="M-31.2028 182.816L-40.8067 178.238L-45.3848 187.842L-35.7809 192.42L-31.2028 182.816Z" fill="#6F00C9"/>
<path d="M-40.8067 178.238L-50.4105 173.66L-54.9887 183.264L-45.3848 187.842L-40.8067 178.238Z" fill="#6F00C9"/>
<path d="M-50.4105 173.66L-60.0144 169.082L-64.5925 178.686L-54.9887 183.264L-50.4105 173.66Z" fill="#6F00C9"/>
<path d="M-60.0144 169.082L-69.6183 164.504L-74.1964 174.108L-64.5925 178.686L-60.0144 169.082Z" fill="#6F00C9"/>
<path d="M-69.6183 164.504L-79.2222 159.926L-83.8003 169.53L-74.1964 174.108L-69.6183 164.504Z" fill="#6F00C9"/>
<path d="M-79.2222 159.926L-88.8261 155.348L-93.4042 164.952L-83.8003 169.53L-79.2222 159.926Z" fill="#6F00C9"/>
<path d="M-88.8261 155.348L-98.4299 150.77L-103.008 160.373L-93.4042 164.952L-88.8261 155.348Z" fill="#6F00C9"/>
<path d="M-98.4299 150.77L-108.034 146.191L-112.612 155.795L-103.008 160.373L-98.4299 150.77Z" fill="#6F00C9"/>
<path d="M-108.034 146.191L-117.638 141.613L-122.216 151.217L-112.612 155.795L-108.034 146.191Z" fill="#6F00C9"/>
<path d="M-117.638 141.613L-127.242 137.035L-131.82 146.639L-122.216 151.217L-117.638 141.613Z" fill="#6F00C9"/>
<path d="M165.453 264.775L155.849 260.197L151.271 269.8L160.875 274.379L165.453 264.775Z" fill="#540095"/>
<path d="M155.849 260.197L146.245 255.618L141.667 265.222L151.271 269.8L155.849 260.197Z" fill="#540095"/>
<path d="M146.245 255.618L136.641 251.04L132.063 260.644L141.667 265.222L146.245 255.618Z" fill="#540095"/>
<path d="M136.641 251.04L127.037 246.462L122.459 256.066L132.063 260.644L136.641 251.04Z" fill="#390060"/>
<path d="M127.037 246.462L117.434 241.884L112.855 251.488L122.459 256.066L127.037 246.462Z" fill="#38005D"/>
<path d="M117.434 241.884L107.83 237.306L103.252 246.91L112.855 251.488L117.434 241.884Z" fill="#38005D"/>
<path d="M107.83 237.306L98.2257 232.728L93.6476 242.332L103.252 246.91L107.83 237.306Z" fill="#39005F"/>
<path d="M98.2257 232.728L88.6219 228.15L84.0438 237.754L93.6476 242.332L98.2257 232.728Z" fill="#540095"/>
<path d="M88.6219 228.15L79.018 223.572L74.4399 233.176L84.0438 237.754L88.6219 228.15Z" fill="#6F00C9"/>
<path d="M79.018 223.572L69.4141 218.994L64.836 228.597L74.4399 233.176L79.018 223.572Z" fill="#4B007F"/>
<path d="M69.4141 218.994L59.8102 214.415L55.2321 224.019L64.836 228.597L69.4141 218.994Z" fill="#4B007F"/>
<path d="M59.8102 214.415L50.2064 209.837L45.6283 219.441L55.2321 224.019L59.8102 214.415Z" fill="#4B007F"/>
<path d="M50.2064 209.837L40.6025 205.259L36.0244 214.863L45.6283 219.441L50.2064 209.837Z" fill="#4B007F"/>
<path d="M40.6025 205.259L30.9986 200.681L26.4205 210.285L36.0244 214.863L40.6025 205.259Z" fill="#4B007F"/>
<path d="M30.9986 200.681L21.3947 196.103L16.8166 205.707L26.4205 210.285L30.9986 200.681Z" fill="#4B007F"/>
<path d="M21.3947 196.103L11.7909 191.525L7.21274 201.129L16.8166 205.707L21.3947 196.103Z" fill="#6F00C9"/>
<path d="M11.7909 191.525L2.18696 186.947L-2.39116 196.551L7.21274 201.129L11.7909 191.525Z" fill="#6F00C9"/>
<path d="M2.18696 186.947L-7.41691 182.369L-11.995 191.973L-2.39116 196.551L2.18696 186.947Z" fill="#6F00C9"/>
<path d="M-7.41691 182.369L-17.0208 177.791L-21.5989 187.394L-11.995 191.973L-7.41691 182.369Z" fill="#6F00C9"/>
<path d="M-17.0208 177.791L-26.6247 173.212L-31.2028 182.816L-21.5989 187.394L-17.0208 177.791Z" fill="#6F00C9"/>
<path d="M-26.6247 173.212L-36.2286 168.634L-40.8067 178.238L-31.2028 182.816L-26.6247 173.212Z" fill="#6F00C9"/>
<path d="M-36.2286 168.634L-45.8324 164.056L-50.4105 173.66L-40.8067 178.238L-36.2286 168.634Z" fill="#6F00C9"/>
<path d="M-45.8324 164.056L-55.4363 159.478L-60.0144 169.082L-50.4105 173.66L-45.8324 164.056Z" fill="#6F00C9"/>
<path d="M-55.4363 159.478L-65.0402 154.9L-69.6183 164.504L-60.0144 169.082L-55.4363 159.478Z" fill="#6F00C9"/>
<path d="M-65.0402 154.9L-74.6441 150.322L-79.2222 159.926L-69.6183 164.504L-65.0402 154.9Z" fill="#6F00C9"/>
<path d="M-74.6441 150.322L-84.248 145.744L-88.8261 155.348L-79.2222 159.926L-74.6441 150.322Z" fill="#4C0081"/>
<path d="M-84.248 145.744L-93.8518 141.166L-98.4299 150.77L-88.8261 155.348L-84.248 145.744Z" fill="#4B007F"/>
<path d="M-93.8518 141.166L-103.456 136.588L-108.034 146.191L-98.4299 150.77L-93.8518 141.166Z" fill="#6100AC"/>
<path d="M-103.456 136.588L-113.06 132.009L-117.638 141.613L-108.034 146.191L-103.456 136.588Z" fill="#6F00C9"/>
<path d="M-113.06 132.009L-122.663 127.431L-127.242 137.035L-117.638 141.613L-113.06 132.009Z" fill="#6F00C9"/>
<path d="M-122.663 127.431L-132.267 122.853L-136.845 132.457L-127.242 137.035L-122.663 127.431Z" fill="#6F00C9"/>
<path d="M170.031 255.171L160.427 250.593L155.849 260.197L165.453 264.775L170.031 255.171Z" fill="#540095"/>
<path d="M160.427 250.593L150.823 246.015L146.245 255.618L155.849 260.197L160.427 250.593Z" fill="#540095"/>
<path d="M150.823 246.015L141.219 241.437L136.641 251.04L146.245 255.618L150.823 246.015Z" fill="#4E0089"/>
<path d="M141.219 241.437L131.615 236.858L127.037 246.462L136.641 251.04L141.219 241.437Z" fill="#38005D"/>
<path d="M131.615 236.858L122.012 232.28L117.434 241.884L127.037 246.462L131.615 236.858Z" fill="#38005D"/>
<path d="M122.012 232.28L112.408 227.702L107.83 237.306L117.434 241.884L122.012 232.28Z" fill="#38005D"/>
<path d="M112.408 227.702L102.804 223.124L98.2257 232.728L107.83 237.306L112.408 227.702Z" fill="#38005D"/>
<path d="M102.804 223.124L93.2 218.546L88.6219 228.15L98.2257 232.728L102.804 223.124Z" fill="#550098"/>
<path d="M93.2 218.546L83.5961 213.968L79.018 223.572L88.6219 228.15L93.2 218.546Z" fill="#6F00C9"/>
<path d="M83.5961 213.968L73.9922 209.39L69.4141 218.994L79.018 223.572L83.5961 213.968Z" fill="#4B007F"/>
<path d="M73.9922 209.39L64.3883 204.812L59.8102 214.415L69.4141 218.994L73.9922 209.39Z" fill="#4B007F"/>
<path d="M64.3883 204.812L54.7845 200.234L50.2064 209.837L59.8102 214.415L64.3883 204.812Z" fill="#4B007F"/>
<path d="M54.7845 200.234L45.1806 195.655L40.6025 205.259L50.2064 209.837L54.7845 200.234Z" fill="#4B007F"/>
<path d="M45.1806 195.655L35.5767 191.077L30.9986 200.681L40.6025 205.259L45.1806 195.655Z" fill="#4B007F"/>
<path d="M35.5767 191.077L25.9728 186.499L21.3947 196.103L30.9986 200.681L35.5767 191.077Z" fill="#6F00C9"/>
<path d="M25.9728 186.499L16.369 181.921L11.7909 191.525L21.3947 196.103L25.9728 186.499Z" fill="#6F00C9"/>
<path d="M16.369 181.921L6.76506 177.343L2.18696 186.947L11.7909 191.525L16.369 181.921Z" fill="#6F00C9"/>
<path d="M6.76506 177.343L-2.8388 172.765L-7.41691 182.369L2.18696 186.947L6.76506 177.343Z" fill="#6F00C9"/>
<path d="M-2.8388 172.765L-12.4427 168.187L-17.0208 177.791L-7.41691 182.369L-2.8388 172.765Z" fill="#6F00C9"/>
<path d="M-12.4427 168.187L-22.0466 163.609L-26.6247 173.212L-17.0208 177.791L-12.4427 168.187Z" fill="#6F00C9"/>
<path d="M-22.0466 163.609L-31.6505 159.03L-36.2286 168.634L-26.6247 173.212L-22.0466 163.609Z" fill="#6F00C9"/>
<path d="M-31.6505 159.03L-41.2543 154.452L-45.8324 164.056L-36.2286 168.634L-31.6505 159.03Z" fill="#6F00C9"/>
<path d="M-41.2543 154.452L-50.8582 149.874L-55.4363 159.478L-45.8324 164.056L-41.2543 154.452Z" fill="#6F00C9"/>
<path d="M-50.8582 149.874L-60.4621 145.296L-65.0402 154.9L-55.4363 159.478L-50.8582 149.874Z" fill="#4B007F"/>
<path d="M-60.4621 145.296L-70.066 140.718L-74.6441 150.322L-65.0402 154.9L-60.4621 145.296Z" fill="#4B007F"/>
<path d="M-70.066 140.718L-79.6698 136.14L-84.248 145.744L-74.6441 150.322L-70.066 140.718Z" fill="#4B007F"/>
<path d="M-79.6698 136.14L-89.2737 131.562L-93.8518 141.166L-84.248 145.744L-79.6698 136.14Z" fill="#4B007F"/>
<path d="M-89.2737 131.562L-98.8776 126.984L-103.456 136.588L-93.8518 141.166L-89.2737 131.562Z" fill="#4B007F"/>
<path d="M-98.8776 126.984L-108.481 122.406L-113.06 132.009L-103.456 136.588L-98.8776 126.984Z" fill="#4B007F"/>
<path d="M-108.481 122.406L-118.085 117.827L-122.663 127.431L-113.06 132.009L-108.481 122.406Z" fill="#530091"/>
<path d="M-118.085 117.827L-127.689 113.249L-132.267 122.853L-122.663 127.431L-118.085 117.827Z" fill="#6F00C9"/>
<path d="M174.609 245.567L165.005 240.989L160.427 250.593L170.031 255.171L174.609 245.567Z" fill="#540095"/>
<path d="M165.005 240.989L155.401 236.411L150.823 246.015L160.427 250.593L165.005 240.989Z" fill="#540095"/>
<path d="M155.401 236.411L145.797 231.833L141.219 241.437L150.823 246.015L155.401 236.411Z" fill="#38005D"/>
<path d="M145.797 231.833L136.194 227.254L131.615 236.858L141.219 241.437L145.797 231.833Z" fill="#38005D"/>
<path d="M136.194 227.254L126.59 222.676L122.012 232.28L131.615 236.858L136.194 227.254Z" fill="#38005D"/>
<path d="M126.59 222.676L116.986 218.098L112.408 227.702L122.012 232.28L126.59 222.676Z" fill="#38005D"/>
<path d="M116.986 218.098L107.382 213.52L102.804 223.124L112.408 227.702L116.986 218.098Z" fill="#3E0069"/>
<path d="M107.382 213.52L97.7781 208.942L93.2 218.546L102.804 223.124L107.382 213.52Z" fill="#6F00C9"/>
<path d="M97.7781 208.942L88.1742 204.364L83.5961 213.968L93.2 218.546L97.7781 208.942Z" fill="#6F00C9"/>
<path d="M88.1742 204.364L78.5703 199.786L73.9922 209.39L83.5961 213.968L88.1742 204.364Z" fill="#6F00C9"/>
<path d="M78.5703 199.786L68.9665 195.208L64.3883 204.812L73.9922 209.39L78.5703 199.786Z" fill="#6F00C9"/>
<path d="M68.9665 195.208L59.3626 190.63L54.7845 200.234L64.3883 204.812L68.9665 195.208Z" fill="#6F00C9"/>
<path d="M59.3626 190.63L49.7587 186.051L45.1806 195.655L54.7845 200.234L59.3626 190.63Z" fill="#6F00C9"/>
<path d="M49.7587 186.051L40.1548 181.473L35.5767 191.077L45.1806 195.655L49.7587 186.051Z" fill="#6F00C9"/>
<path d="M40.1548 181.473L30.5509 176.895L25.9728 186.499L35.5767 191.077L40.1548 181.473Z" fill="#6F00C9"/>
<path d="M30.5509 176.895L20.9471 172.317L16.369 181.921L25.9728 186.499L30.5509 176.895Z" fill="#6F00C9"/>
<path d="M20.9471 172.317L11.3432 167.739L6.76506 177.343L16.369 181.921L20.9471 172.317Z" fill="#6F00C9"/>
<path d="M11.3432 167.739L1.73932 163.161L-2.8388 172.765L6.76506 177.343L11.3432 167.739Z" fill="#6F00C9"/>
<path d="M1.73932 163.161L-7.86457 158.583L-12.4427 168.187L-2.8388 172.765L1.73932 163.161Z" fill="#6F00C9"/>
<path d="M-7.86457 158.583L-17.4684 154.005L-22.0466 163.609L-12.4427 168.187L-7.86457 158.583Z" fill="#6F00C9"/>
<path d="M-17.4684 154.005L-27.0723 149.427L-31.6505 159.03L-22.0466 163.609L-17.4684 154.005Z" fill="#6F00C9"/>
<path d="M-27.0723 149.427L-36.6762 144.848L-41.2543 154.452L-31.6505 159.03L-27.0723 149.427Z" fill="#6F00C9"/>
<path d="M-36.6762 144.848L-46.2801 140.27L-50.8582 149.874L-41.2543 154.452L-36.6762 144.848Z" fill="#4B007F"/>
<path d="M-46.2801 140.27L-55.884 135.692L-60.4621 145.296L-50.8582 149.874L-46.2801 140.27Z" fill="#4B007F"/>
<path d="M-55.884 135.692L-65.4878 131.114L-70.066 140.718L-60.4621 145.296L-55.884 135.692Z" fill="#4B007F"/>
<path d="M-65.4878 131.114L-75.0917 126.536L-79.6698 136.14L-70.066 140.718L-65.4878 131.114Z" fill="#4B007F"/>
<path d="M-75.0917 126.536L-84.6956 121.958L-89.2737 131.562L-79.6698 136.14L-75.0917 126.536Z" fill="#4B007F"/>
<path d="M-84.6956 121.958L-94.2995 117.38L-98.8776 126.984L-89.2737 131.562L-84.6956 121.958Z" fill="#4B007F"/>
<path d="M-94.2995 117.38L-103.903 112.802L-108.481 122.406L-98.8776 126.984L-94.2995 117.38Z" fill="#4B007F"/>
<path d="M-103.903 112.802L-113.507 108.224L-118.085 117.827L-108.481 122.406L-103.903 112.802Z" fill="#4B007F"/>
<path d="M-113.507 108.224L-123.111 103.645L-127.689 113.249L-118.085 117.827L-113.507 108.224Z" fill="#6F00C9"/>
<path d="M179.187 235.963L169.583 231.385L165.005 240.989L174.609 245.567L179.187 235.963Z" fill="#540095"/>
<path d="M169.583 231.385L159.979 226.807L155.401 236.411L165.005 240.989L169.583 231.385Z" fill="#540095"/>
<path d="M159.979 226.807L150.376 222.229L145.797 231.833L155.401 236.411L159.979 226.807Z" fill="#410070"/>
<path d="M150.376 222.229L140.772 217.651L136.194 227.254L145.797 231.833L150.376 222.229Z" fill="#38005D"/>
<path d="M140.772 217.651L131.168 213.073L126.59 222.676L136.194 227.254L140.772 217.651Z" fill="#38005D"/>
<path d="M131.168 213.073L121.564 208.494L116.986 218.098L126.59 222.676L131.168 213.073Z" fill="#50008E"/>
<path d="M121.564 208.494L111.96 203.916L107.382 213.52L116.986 218.098L121.564 208.494Z" fill="#540095"/>
<path d="M111.96 203.916L102.356 199.338L97.7781 208.942L107.382 213.52L111.96 203.916Z" fill="#6F00C9"/>
<path d="M102.356 199.338L92.7523 194.76L88.1742 204.364L97.7781 208.942L102.356 199.338Z" fill="#6F00C9"/>
<path d="M92.7523 194.76L83.1485 190.182L78.5703 199.786L88.1742 204.364L92.7523 194.76Z" fill="#6F00C9"/>
<path d="M83.1485 190.182L73.5446 185.604L68.9665 195.208L78.5703 199.786L83.1485 190.182Z" fill="#530090"/>
<path d="M73.5446 185.604L63.9407 181.026L59.3626 190.63L68.9665 195.208L73.5446 185.604Z" fill="#6F00C9"/>
<path d="M63.9407 181.026L54.3368 176.448L49.7587 186.051L59.3626 190.63L63.9407 181.026Z" fill="#6F00C9"/>
<path d="M54.3368 176.448L44.733 171.87L40.1548 181.473L49.7587 186.051L54.3368 176.448Z" fill="#6F00C9"/>
<path d="M44.733 171.87L35.1291 167.291L30.5509 176.895L40.1548 181.473L44.733 171.87Z" fill="#6F00C9"/>
<path d="M35.1291 167.291L25.5252 162.713L20.9471 172.317L30.5509 176.895L35.1291 167.291Z" fill="#6F00C9"/>
<path d="M25.5252 162.713L15.9213 158.135L11.3432 167.739L20.9471 172.317L25.5252 162.713Z" fill="#6F00C9"/>
<path d="M15.9213 158.135L6.31742 153.557L1.73932 163.161L11.3432 167.739L15.9213 158.135Z" fill="#6F00C9"/>
<path d="M6.31742 153.557L-3.28647 148.979L-7.86457 158.583L1.73932 163.161L6.31742 153.557Z" fill="#6F00C9"/>
<path d="M-3.28647 148.979L-12.8903 144.401L-17.4684 154.005L-7.86457 158.583L-3.28647 148.979Z" fill="#6F00C9"/>
<path d="M-12.8903 144.401L-22.4942 139.823L-27.0723 149.427L-17.4684 154.005L-12.8903 144.401Z" fill="#6F00C9"/>
<path d="M-22.4942 139.823L-32.0981 135.245L-36.6762 144.848L-27.0723 149.427L-22.4942 139.823Z" fill="#6600B8"/>
<path d="M-32.0981 135.245L-41.702 130.666L-46.2801 140.27L-36.6762 144.848L-32.0981 135.245Z" fill="#4B007F"/>
<path d="M-41.702 130.666L-51.3059 126.088L-55.884 135.692L-46.2801 140.27L-41.702 130.666Z" fill="#4B007F"/>
<path d="M-51.3059 126.088L-60.9097 121.51L-65.4878 131.114L-55.884 135.692L-51.3059 126.088Z" fill="#4B007F"/>
<path d="M-60.9097 121.51L-70.5136 116.932L-75.0917 126.536L-65.4878 131.114L-60.9097 121.51Z" fill="#4B007F"/>
<path d="M-70.5136 116.932L-80.1175 112.354L-84.6956 121.958L-75.0917 126.536L-70.5136 116.932Z" fill="#4B007F"/>
<path d="M-80.1175 112.354L-89.7214 107.776L-94.2995 117.38L-84.6956 121.958L-80.1175 112.354Z" fill="#4B007F"/>
<path d="M-89.7214 107.776L-99.3253 103.198L-103.903 112.802L-94.2995 117.38L-89.7214 107.776Z" fill="#4B007F"/>
<path d="M-99.3253 103.198L-108.929 98.6197L-113.507 108.224L-103.903 112.802L-99.3253 103.198Z" fill="#6F00C9"/>
<path d="M-108.929 98.6197L-118.533 94.0416L-123.111 103.645L-113.507 108.224L-108.929 98.6197Z" fill="#6F00C9"/>
<path d="M183.765 226.359L174.162 221.781L169.583 231.385L179.187 235.963L183.765 226.359Z" fill="#540095"/>
<path d="M174.162 221.781L164.558 217.203L159.979 226.807L169.583 231.385L174.162 221.781Z" fill="#540095"/>
<path d="M164.558 217.203L154.954 212.625L150.376 222.229L159.979 226.807L164.558 217.203Z" fill="#540095"/>
<path d="M154.954 212.625L145.35 208.047L140.772 217.651L150.376 222.229L154.954 212.625Z" fill="#540095"/>
<path d="M145.35 208.047L135.746 203.469L131.168 213.073L140.772 217.651L145.35 208.047Z" fill="#540095"/>
<path d="M135.746 203.469L126.142 198.891L121.564 208.494L131.168 213.073L135.746 203.469Z" fill="#540095"/>
<path d="M126.142 198.891L116.538 194.312L111.96 203.916L121.564 208.494L126.142 198.891Z" fill="#59009E"/>
<path d="M116.538 194.312L106.934 189.734L102.356 199.338L111.96 203.916L116.538 194.312Z" fill="#6F00C9"/>
<path d="M106.934 189.734L97.3305 185.156L92.7523 194.76L102.356 199.338L106.934 189.734Z" fill="#6F00C9"/>
<path d="M97.3305 185.156L87.7266 180.578L83.1485 190.182L92.7523 194.76L97.3305 185.156Z" fill="#4B007F"/>
<path d="M87.7266 180.578L78.1227 176L73.5446 185.604L83.1485 190.182L87.7266 180.578Z" fill="#4B007F"/>
<path d="M78.1227 176L68.5188 171.422L63.9407 181.026L73.5446 185.604L78.1227 176Z" fill="#6F00C9"/>
<path d="M68.5188 171.422L58.9149 166.844L54.3368 176.448L63.9407 181.026L68.5188 171.422Z" fill="#6F00C9"/>
<path d="M58.9149 166.844L49.3111 162.266L44.733 171.87L54.3368 176.448L58.9149 166.844Z" fill="#6F00C9"/>
<path d="M49.3111 162.266L39.7072 157.688L35.1291 167.291L44.733 171.87L49.3111 162.266Z" fill="#6F00C9"/>
<path d="M39.7072 157.688L30.1033 153.109L25.5252 162.713L35.1291 167.291L39.7072 157.688Z" fill="#6F00C9"/>
<path d="M30.1033 153.109L20.4994 148.531L15.9213 158.135L25.5252 162.713L30.1033 153.109Z" fill="#6F00C9"/>
<path d="M20.4994 148.531L10.8955 143.953L6.31742 153.557L15.9213 158.135L20.4994 148.531Z" fill="#6F00C9"/>
<path d="M10.8955 143.953L1.29165 139.375L-3.28647 148.979L6.31742 153.557L10.8955 143.953Z" fill="#6F00C9"/>
<path d="M1.29165 139.375L-8.31222 134.797L-12.8903 144.401L-3.28647 148.979L1.29165 139.375Z" fill="#6F00C9"/>
<path d="M-8.31222 134.797L-17.9161 130.219L-22.4942 139.823L-12.8903 144.401L-8.31222 134.797Z" fill="#6F00C9"/>
<path d="M-17.9161 130.219L-27.52 125.641L-32.0981 135.245L-22.4942 139.823L-17.9161 130.219Z" fill="#6400B4"/>
<path d="M-27.52 125.641L-37.1239 121.063L-41.702 130.666L-32.0981 135.245L-27.52 125.641Z" fill="#4B007F"/>
<path d="M-37.1239 121.063L-46.7277 116.484L-51.3059 126.088L-41.702 130.666L-37.1239 121.063Z" fill="#4B007F"/>
<path d="M-46.7277 116.484L-56.3316 111.906L-60.9097 121.51L-51.3059 126.088L-46.7277 116.484Z" fill="#4B007F"/>
<path d="M-56.3316 111.906L-65.9355 107.328L-70.5136 116.932L-60.9097 121.51L-56.3316 111.906Z" fill="#4B007F"/>
<path d="M-65.9355 107.328L-75.5394 102.75L-80.1175 112.354L-70.5136 116.932L-65.9355 107.328Z" fill="#4B007F"/>
<path d="M-75.5394 102.75L-85.1433 98.172L-89.7214 107.776L-80.1175 112.354L-75.5394 102.75Z" fill="#4B007F"/>
<path d="M-85.1433 98.172L-94.7471 93.5939L-99.3253 103.198L-89.7214 107.776L-85.1433 98.172Z" fill="#6F00C9"/>
<path d="M-94.7471 93.5939L-104.351 89.0158L-108.929 98.6197L-99.3253 103.198L-94.7471 93.5939Z" fill="#6F00C9"/>
<path d="M-104.351 89.0158L-113.955 84.4377L-118.533 94.0416L-108.929 98.6197L-104.351 89.0158Z" fill="#6F00C9"/>
<path d="M188.343 216.755L178.74 212.177L174.162 221.781L183.765 226.359L188.343 216.755Z" fill="#540095"/>
<path d="M178.74 212.177L169.136 207.599L164.558 217.203L174.162 221.781L178.74 212.177Z" fill="#540095"/>
<path d="M169.136 207.599L159.532 203.021L154.954 212.625L164.558 217.203L169.136 207.599Z" fill="#540095"/>
<path d="M159.532 203.021L149.928 198.443L145.35 208.047L154.954 212.625L159.532 203.021Z" fill="#540095"/>
<path d="M149.928 198.443L140.324 193.865L135.746 203.469L145.35 208.047L149.928 198.443Z" fill="#540095"/>
<path d="M140.324 193.865L130.72 189.287L126.142 198.891L135.746 203.469L140.324 193.865Z" fill="#540095"/>
<path d="M130.72 189.287L121.116 184.709L116.538 194.312L126.142 198.891L130.72 189.287Z" fill="#6F00C9"/>
<path d="M121.116 184.709L111.512 180.13L106.934 189.734L116.538 194.312L121.116 184.709Z" fill="#6F00C9"/>
<path d="M111.512 180.13L101.909 175.552L97.3305 185.156L106.934 189.734L111.512 180.13Z" fill="#6F00C9"/>
<path d="M101.909 175.552L92.3047 170.974L87.7266 180.578L97.3305 185.156L101.909 175.552Z" fill="#4B007F"/>
<path d="M92.3047 170.974L82.7008 166.396L78.1227 176L87.7266 180.578L92.3047 170.974Z" fill="#4B0080"/>
<path d="M82.7008 166.396L73.0969 161.818L68.5188 171.422L78.1227 176L82.7008 166.396Z" fill="#6F00C9"/>
<path d="M73.0969 161.818L63.493 157.24L58.9149 166.844L68.5188 171.422L73.0969 161.818Z" fill="#6F00C9"/>
<path d="M63.493 157.24L53.8892 152.662L49.3111 162.266L58.9149 166.844L63.493 157.24Z" fill="#6F00C9"/>
<path d="M53.8892 152.662L44.2853 148.084L39.7072 157.688L49.3111 162.266L53.8892 152.662Z" fill="#6F00C9"/>
<path d="M44.2853 148.084L34.6814 143.506L30.1033 153.109L39.7072 157.688L44.2853 148.084Z" fill="#6F00C9"/>
<path d="M34.6814 143.506L25.0775 138.927L20.4994 148.531L30.1033 153.109L34.6814 143.506Z" fill="#6F00C9"/>
<path d="M25.0775 138.927L15.4736 134.349L10.8955 143.953L20.4994 148.531L25.0775 138.927Z" fill="#6F00C9"/>
<path d="M15.4736 134.349L5.86976 129.771L1.29165 139.375L10.8955 143.953L15.4736 134.349Z" fill="#6F00C9"/>
<path d="M5.86976 129.771L-3.73411 125.193L-8.31222 134.797L1.29165 139.375L5.86976 129.771Z" fill="#6F00C9"/>
<path d="M-3.73411 125.193L-13.338 120.615L-17.9161 130.219L-8.31222 134.797L-3.73411 125.193Z" fill="#6F00C9"/>
<path d="M-13.338 120.615L-22.9419 116.037L-27.52 125.641L-17.9161 130.219L-13.338 120.615Z" fill="#6F00C9"/>
<path d="M-22.9419 116.037L-32.5458 111.459L-37.1239 121.063L-27.52 125.641L-22.9419 116.037Z" fill="#4B007F"/>
<path d="M-32.5458 111.459L-42.1496 106.881L-46.7277 116.484L-37.1239 121.063L-32.5458 111.459Z" fill="#4B007F"/>
<path d="M-42.1496 106.881L-51.7535 102.303L-56.3316 111.906L-46.7277 116.484L-42.1496 106.881Z" fill="#4B007F"/>
<path d="M-51.7535 102.303L-61.3574 97.7244L-65.9355 107.328L-56.3316 111.906L-51.7535 102.303Z" fill="#4B007F"/>
<path d="M-61.3574 97.7244L-70.9613 93.1463L-75.5394 102.75L-65.9355 107.328L-61.3574 97.7244Z" fill="#6F00C9"/>
<path d="M-70.9613 93.1463L-80.5652 88.5682L-85.1433 98.172L-75.5394 102.75L-70.9613 93.1463Z" fill="#6F00C9"/>
<path d="M-80.5652 88.5682L-90.169 83.9901L-94.7471 93.5939L-85.1433 98.172L-80.5652 88.5682Z" fill="#6F00C9"/>
<path d="M-90.169 83.9901L-99.7729 79.4119L-104.351 89.0158L-94.7471 93.5939L-90.169 83.9901Z" fill="#6F00C9"/>
<path d="M-99.7729 79.4119L-109.377 74.8338L-113.955 84.4377L-104.351 89.0158L-99.7729 79.4119Z" fill="#6F00C9"/>
<path d="M192.922 207.151L183.318 202.573L178.74 212.177L188.343 216.755L192.922 207.151Z" fill="#540095"/>
<path d="M183.318 202.573L173.714 197.995L169.136 207.599L178.74 212.177L183.318 202.573Z" fill="#540095"/>
<path d="M173.714 197.995L164.11 193.417L159.532 203.021L169.136 207.599L173.714 197.995Z" fill="#540095"/>
<path d="M164.11 193.417L154.506 188.839L149.928 198.443L159.532 203.021L164.11 193.417Z" fill="#540095"/>
<path d="M154.506 188.839L144.902 184.261L140.324 193.865L149.928 198.443L154.506 188.839Z" fill="#540095"/>
<path d="M144.902 184.261L135.298 179.683L130.72 189.287L140.324 193.865L144.902 184.261Z" fill="#540095"/>
<path d="M135.298 179.683L125.694 175.105L121.116 184.709L130.72 189.287L135.298 179.683Z" fill="#6F00C9"/>
<path d="M125.694 175.105L116.091 170.527L111.512 180.13L121.116 184.709L125.694 175.105Z" fill="#6F00C9"/>
<path d="M116.091 170.527L106.487 165.948L101.909 175.552L111.512 180.13L116.091 170.527Z" fill="#6F00C9"/>
<path d="M106.487 165.948L96.8828 161.37L92.3047 170.974L101.909 175.552L106.487 165.948Z" fill="#6F00C9"/>
<path d="M96.8828 161.37L87.2789 156.792L82.7008 166.396L92.3047 170.974L96.8828 161.37Z" fill="#6F00C9"/>
<path d="M87.2789 156.792L77.675 152.214L73.0969 161.818L82.7008 166.396L87.2789 156.792Z" fill="#6F00C9"/>
<path d="M77.675 152.214L68.0712 147.636L63.493 157.24L73.0969 161.818L77.675 152.214Z" fill="#6F00C9"/>
<path d="M68.0712 147.636L58.4673 143.058L53.8892 152.662L63.493 157.24L68.0712 147.636Z" fill="#6F00C9"/>
<path d="M58.4673 143.058L48.8634 138.48L44.2853 148.084L53.8892 152.662L58.4673 143.058Z" fill="#6F00C9"/>
<path d="M48.8634 138.48L39.2595 133.902L34.6814 143.506L44.2853 148.084L48.8634 138.48Z" fill="#6F00C9"/>
<path d="M39.2595 133.902L29.6556 129.324L25.0775 138.927L34.6814 143.506L39.2595 133.902Z" fill="#6F00C9"/>
<path d="M29.6556 129.324L20.0518 124.745L15.4736 134.349L25.0775 138.927L29.6556 129.324Z" fill="#6F00C9"/>
<path d="M20.0518 124.745L10.4479 120.167L5.86976 129.771L15.4736 134.349L20.0518 124.745Z" fill="#6F00C9"/>
<path d="M10.4479 120.167L0.844002 115.589L-3.73411 125.193L5.86976 129.771L10.4479 120.167Z" fill="#6F00C9"/>
<path d="M0.844002 115.589L-8.75988 111.011L-13.338 120.615L-3.73411 125.193L0.844002 115.589Z" fill="#6F00C9"/>
<path d="M-8.75988 111.011L-18.3638 106.433L-22.9419 116.037L-13.338 120.615L-8.75988 111.011Z" fill="#6F00C9"/>
<path d="M-18.3638 106.433L-27.9676 101.855L-32.5458 111.459L-22.9419 116.037L-18.3638 106.433Z" fill="#6F00C9"/>
<path d="M-27.9676 101.855L-37.5715 97.2767L-42.1496 106.881L-32.5458 111.459L-27.9676 101.855Z" fill="#6F00C9"/>
<path d="M-37.5715 97.2767L-47.1754 92.6986L-51.7535 102.303L-42.1496 106.881L-37.5715 97.2767Z" fill="#6F00C9"/>
<path d="M-47.1754 92.6986L-56.7793 88.1205L-61.3574 97.7244L-51.7535 102.303L-47.1754 92.6986Z" fill="#6F00C9"/>
<path d="M-56.7793 88.1205L-66.3832 83.5424L-70.9613 93.1463L-61.3574 97.7244L-56.7793 88.1205Z" fill="#6F00C9"/>
<path d="M-66.3832 83.5424L-75.987 78.9643L-80.5652 88.5682L-70.9613 93.1463L-66.3832 83.5424Z" fill="#6F00C9"/>
<path d="M-75.987 78.9643L-85.5909 74.3862L-90.169 83.9901L-80.5652 88.5682L-75.987 78.9643Z" fill="#6F00C9"/>
<path d="M-85.5909 74.3862L-95.1948 69.8081L-99.7729 79.4119L-90.169 83.9901L-85.5909 74.3862Z" fill="#6F00C9"/>
<path d="M-95.1948 69.8081L-104.799 65.2299L-109.377 74.8338L-99.7729 79.4119L-95.1948 69.8081Z" fill="#6F00C9"/>
<path d="M197.5 197.548L187.896 192.969L183.318 202.573L192.922 207.151L197.5 197.548Z" fill="#540095"/>
<path d="M187.896 192.969L178.292 188.391L173.714 197.995L183.318 202.573L187.896 192.969Z" fill="#540095"/>
<path d="M178.292 188.391L168.688 183.813L164.11 193.417L173.714 197.995L178.292 188.391Z" fill="#540095"/>
<path d="M168.688 183.813L159.084 179.235L154.506 188.839L164.11 193.417L168.688 183.813Z" fill="#540095"/>
<path d="M159.084 179.235L149.48 174.657L144.902 184.261L154.506 188.839L159.084 179.235Z" fill="#540095"/>
<path d="M149.48 174.657L139.876 170.079L135.298 179.683L144.902 184.261L149.48 174.657Z" fill="#540095"/>
<path d="M139.876 170.079L130.273 165.501L125.694 175.105L135.298 179.683L139.876 170.079Z" fill="#6F00C9"/>
<path d="M130.273 165.501L120.669 160.923L116.091 170.527L125.694 175.105L130.273 165.501Z" fill="#6F00C9"/>
<path d="M120.669 160.923L111.065 156.345L106.487 165.948L116.091 170.527L120.669 160.923Z" fill="#6F00C9"/>
<path d="M111.065 156.345L101.461 151.766L96.8828 161.37L106.487 165.948L111.065 156.345Z" fill="#6F00C9"/>
<path d="M101.461 151.766L91.857 147.188L87.2789 156.792L96.8828 161.37L101.461 151.766Z" fill="#6F00C9"/>
<path d="M91.857 147.188L82.2532 142.61L77.675 152.214L87.2789 156.792L91.857 147.188Z" fill="#6F00C9"/>
<path d="M82.2532 142.61L72.6493 138.032L68.0712 147.636L77.675 152.214L82.2532 142.61Z" fill="#6F00C9"/>
<path d="M72.6493 138.032L63.0454 133.454L58.4673 143.058L68.0712 147.636L72.6493 138.032Z" fill="#6F00C9"/>
<path d="M63.0454 133.454L53.4415 128.876L48.8634 138.48L58.4673 143.058L63.0454 133.454Z" fill="#6F00C9"/>
<path d="M53.4415 128.876L43.8376 124.298L39.2595 133.902L48.8634 138.48L53.4415 128.876Z" fill="#6F00C9"/>
<path d="M43.8376 124.298L34.2337 119.72L29.6556 129.324L39.2595 133.902L43.8376 124.298Z" fill="#6F00C9"/>
<path d="M34.2337 119.72L24.6299 115.142L20.0518 124.745L29.6556 129.324L34.2337 119.72Z" fill="#6F00C9"/>
<path d="M24.6299 115.142L15.026 110.563L10.4479 120.167L20.0518 124.745L24.6299 115.142Z" fill="#6F00C9"/>
<path d="M15.026 110.563L5.42211 105.985L0.844002 115.589L10.4479 120.167L15.026 110.563Z" fill="#6F00C9"/>
<path d="M5.42211 105.985L-4.18177 101.407L-8.75988 111.011L0.844002 115.589L5.42211 105.985Z" fill="#6F00C9"/>
<path d="M-4.18177 101.407L-13.7856 96.8291L-18.3638 106.433L-8.75988 111.011L-4.18177 101.407Z" fill="#4B007F"/>
<path d="M-13.7856 96.8291L-23.3895 92.251L-27.9676 101.855L-18.3638 106.433L-13.7856 96.8291Z" fill="#4B007F"/>
<path d="M-23.3895 92.251L-32.9934 87.6729L-37.5715 97.2767L-27.9676 101.855L-23.3895 92.251Z" fill="#6000AC"/>
<path d="M-32.9934 87.6729L-42.5973 83.0947L-47.1754 92.6986L-37.5715 97.2767L-32.9934 87.6729Z" fill="#6F00C9"/>
<path d="M-42.5973 83.0947L-52.2012 78.5166L-56.7793 88.1205L-47.1754 92.6986L-42.5973 83.0947Z" fill="#6F00C9"/>
<path d="M-52.2012 78.5166L-61.805 73.9385L-66.3832 83.5424L-56.7793 88.1205L-52.2012 78.5166Z" fill="#6F00C9"/>
<path d="M-61.805 73.9385L-71.4089 69.3604L-75.987 78.9643L-66.3832 83.5424L-61.805 73.9385Z" fill="#6F00C9"/>
<path d="M-71.4089 69.3604L-81.0128 64.7823L-85.5909 74.3862L-75.987 78.9643L-71.4089 69.3604Z" fill="#6F00C9"/>
<path d="M-81.0128 64.7823L-90.6167 60.2042L-95.1948 69.8081L-85.5909 74.3862L-81.0128 64.7823Z" fill="#6F00C9"/>
<path d="M192.474 183.366L182.87 178.787L178.292 188.391L187.896 192.969L192.474 183.366Z" fill="#540095"/>
<path d="M182.87 178.787L173.266 174.209L168.688 183.813L178.292 188.391L182.87 178.787Z" fill="#540095"/>
<path d="M173.266 174.209L163.662 169.631L159.084 179.235L168.688 183.813L173.266 174.209Z" fill="#540095"/>
<path d="M163.662 169.631L154.058 165.053L149.48 174.657L159.084 179.235L163.662 169.631Z" fill="#540095"/>
<path d="M154.058 165.053L144.455 160.475L139.876 170.079L149.48 174.657L154.058 165.053Z" fill="#540095"/>
<path d="M144.455 160.475L134.851 155.897L130.273 165.501L139.876 170.079L144.455 160.475Z" fill="#6F00C9"/>
<path d="M134.851 155.897L125.247 151.319L120.669 160.923L130.273 165.501L134.851 155.897Z" fill="#6F00C9"/>
<path d="M125.247 151.319L115.643 146.741L111.065 156.345L120.669 160.923L125.247 151.319Z" fill="#6F00C9"/>
<path d="M115.643 146.741L106.039 142.163L101.461 151.766L111.065 156.345L115.643 146.741Z" fill="#6F00C9"/>
<path d="M106.039 142.163L96.4351 137.584L91.857 147.188L101.461 151.766L106.039 142.163Z" fill="#6F00C9"/>
<path d="M96.4351 137.584L86.8313 133.006L82.2532 142.61L91.857 147.188L96.4351 137.584Z" fill="#6F00C9"/>
<path d="M86.8313 133.006L77.2274 128.428L72.6493 138.032L82.2532 142.61L86.8313 133.006Z" fill="#6F00C9"/>
<path d="M77.2274 128.428L67.6235 123.85L63.0454 133.454L72.6493 138.032L77.2274 128.428Z" fill="#6F00C9"/>
<path d="M67.6235 123.85L58.0196 119.272L53.4415 128.876L63.0454 133.454L67.6235 123.85Z" fill="#6F00C9"/>
<path d="M58.0196 119.272L48.4158 114.694L43.8376 124.298L53.4415 128.876L58.0196 119.272Z" fill="#6F00C9"/>
<path d="M48.4158 114.694L38.8119 110.116L34.2337 119.72L43.8376 124.298L48.4158 114.694Z" fill="#6F00C9"/>
<path d="M38.8119 110.116L29.208 105.538L24.6299 115.142L34.2337 119.72L38.8119 110.116Z" fill="#6F00C9"/>
<path d="M29.208 105.538L19.6041 100.96L15.026 110.563L24.6299 115.142L29.208 105.538Z" fill="#6F00C9"/>
<path d="M19.6041 100.96L10.0002 96.3814L5.42211 105.985L15.026 110.563L19.6041 100.96Z" fill="#6F00C9"/>
<path d="M10.0002 96.3814L0.396343 91.8033L-4.18177 101.407L5.42211 105.985L10.0002 96.3814Z" fill="#6F00C9"/>
<path d="M0.396343 91.8033L-9.20753 87.2252L-13.7856 96.8291L-4.18177 101.407L0.396343 91.8033Z" fill="#6F00C9"/>
<path d="M-9.20753 87.2252L-18.8114 82.6471L-23.3895 92.251L-13.7856 96.8291L-9.20753 87.2252Z" fill="#6F00C9"/>
<path d="M-18.8114 82.6471L-28.4153 78.069L-32.9934 87.6729L-23.3895 92.251L-18.8114 82.6471Z" fill="#6F00C9"/>
<path d="M-28.4153 78.069L-38.0192 73.4909L-42.5973 83.0947L-32.9934 87.6729L-28.4153 78.069Z" fill="#6F00C9"/>
<path d="M-38.0192 73.4909L-47.6231 68.9128L-52.2012 78.5166L-42.5973 83.0947L-38.0192 73.4909Z" fill="#6F00C9"/>
<path d="M-47.6231 68.9128L-57.2269 64.3346L-61.805 73.9385L-52.2012 78.5166L-47.6231 68.9128Z" fill="#6F00C9"/>
<path d="M-57.2269 64.3346L-66.8308 59.7565L-71.4089 69.3604L-61.805 73.9385L-57.2269 64.3346Z" fill="#6F00C9"/>
<path d="M-66.8308 59.7565L-76.4347 55.1784L-81.0128 64.7823L-71.4089 69.3604L-66.8308 59.7565Z" fill="#6F00C9"/>
<path d="M-76.4347 55.1784L-86.0386 50.6003L-90.6167 60.2042L-81.0128 64.7823L-76.4347 55.1784Z" fill="#6F00C9"/>
<path d="M197.052 173.762L187.448 169.184L182.87 178.787L192.474 183.366L197.052 173.762Z" fill="#540095"/>
<path d="M187.448 169.184L177.844 164.605L173.266 174.209L182.87 178.787L187.448 169.184Z" fill="#540095"/>
<path d="M177.844 164.605L168.24 160.027L163.662 169.631L173.266 174.209L177.844 164.605Z" fill="#540095"/>
<path d="M168.24 160.027L158.637 155.449L154.058 165.053L163.662 169.631L168.24 160.027Z" fill="#540095"/>
<path d="M158.637 155.449L149.033 150.871L144.455 160.475L154.058 165.053L158.637 155.449Z" fill="#540095"/>
<path d="M149.033 150.871L139.429 146.293L134.851 155.897L144.455 160.475L149.033 150.871Z" fill="#6300B2"/>
<path d="M139.429 146.293L129.825 141.715L125.247 151.319L134.851 155.897L139.429 146.293Z" fill="#6F00C9"/>
<path d="M129.825 141.715L120.221 137.137L115.643 146.741L125.247 151.319L129.825 141.715Z" fill="#6F00C9"/>
<path d="M120.221 137.137L110.617 132.559L106.039 142.163L115.643 146.741L120.221 137.137Z" fill="#6F00C9"/>
<path d="M110.617 132.559L101.013 127.981L96.4351 137.584L106.039 142.163L110.617 132.559Z" fill="#6F00C9"/>
<path d="M101.013 127.981L91.4094 123.402L86.8313 133.006L96.4351 137.584L101.013 127.981Z" fill="#6F00C9"/>
<path d="M91.4094 123.402L81.8055 118.824L77.2274 128.428L86.8313 133.006L91.4094 123.402Z" fill="#6F00C9"/>
<path d="M81.8055 118.824L72.2016 114.246L67.6235 123.85L77.2274 128.428L81.8055 118.824Z" fill="#6F00C9"/>
<path d="M72.2016 114.246L62.5977 109.668L58.0196 119.272L67.6235 123.85L72.2016 114.246Z" fill="#6F00C9"/>
<path d="M62.5977 109.668L52.9939 105.09L48.4158 114.694L58.0196 119.272L62.5977 109.668Z" fill="#6F00C9"/>
<path d="M52.9939 105.09L43.39 100.512L38.8119 110.116L48.4158 114.694L52.9939 105.09Z" fill="#6F00C9"/>
<path d="M43.39 100.512L33.7861 95.9338L29.208 105.538L38.8119 110.116L43.39 100.512Z" fill="#6F00C9"/>
<path d="M33.7861 95.9338L24.1822 91.3557L19.6041 100.96L29.208 105.538L33.7861 95.9338Z" fill="#6F00C9"/>
<path d="M24.1822 91.3557L14.5783 86.7776L10.0002 96.3814L19.6041 100.96L24.1822 91.3557Z" fill="#6F00C9"/>
<path d="M14.5783 86.7776L4.97445 82.1994L0.396343 91.8033L10.0002 96.3814L14.5783 86.7776Z" fill="#6F00C9"/>
<path d="M4.97445 82.1994L-4.62942 77.6213L-9.20753 87.2252L0.396343 91.8033L4.97445 82.1994Z" fill="#6F00C9"/>
<path d="M-4.62942 77.6213L-14.2333 73.0432L-18.8114 82.6471L-9.20753 87.2252L-4.62942 77.6213Z" fill="#6F00C9"/>
<path d="M-14.2333 73.0432L-23.8372 68.4651L-28.4153 78.069L-18.8114 82.6471L-14.2333 73.0432Z" fill="#6F00C9"/>
<path d="M-23.8372 68.4651L-33.4411 63.887L-38.0192 73.4909L-28.4153 78.069L-23.8372 68.4651Z" fill="#6F00C9"/>
<path d="M-33.4411 63.887L-43.0449 59.3089L-47.6231 68.9128L-38.0192 73.4909L-33.4411 63.887Z" fill="#6F00C9"/>
<path d="M-43.0449 59.3089L-52.6488 54.7308L-57.2269 64.3346L-47.6231 68.9128L-43.0449 59.3089Z" fill="#6F00C9"/>
<path d="M-52.6488 54.7308L-62.2527 50.1527L-66.8308 59.7565L-57.2269 64.3346L-52.6488 54.7308Z" fill="#6F00C9"/>
<path d="M-62.2527 50.1527L-71.8566 45.5745L-76.4347 55.1784L-66.8308 59.7565L-62.2527 50.1527Z" fill="#6F00C9"/>
<path d="M-71.8566 45.5745L-81.4605 40.9964L-86.0386 50.6003L-76.4347 55.1784L-71.8566 45.5745Z" fill="#6F00C9"/>
<path d="M201.63 164.158L192.026 159.58L187.448 169.184L197.052 173.762L201.63 164.158Z" fill="#570097"/>
<path d="M192.026 159.58L182.422 155.002L177.844 164.605L187.448 169.184L192.026 159.58Z" fill="#540095"/>
<path d="M182.422 155.002L172.819 150.423L168.24 160.027L177.844 164.605L182.422 155.002Z" fill="#540095"/>
<path d="M172.819 150.423L163.215 145.845L158.637 155.449L168.24 160.027L172.819 150.423Z" fill="#540095"/>
<path d="M163.215 145.845L153.611 141.267L149.033 150.871L158.637 155.449L163.215 145.845Z" fill="#540095"/>
<path d="M153.611 141.267L144.007 136.689L139.429 146.293L149.033 150.871L153.611 141.267Z" fill="#540095"/>
<path d="M144.007 136.689L134.403 132.111L129.825 141.715L139.429 146.293L144.007 136.689Z" fill="#6F00C9"/>
<path d="M134.403 132.111L124.799 127.533L120.221 137.137L129.825 141.715L134.403 132.111Z" fill="#6F00C9"/>
<path d="M124.799 127.533L115.195 122.955L110.617 132.559L120.221 137.137L124.799 127.533Z" fill="#6F00C9"/>
<path d="M115.195 122.955L105.591 118.377L101.013 127.981L110.617 132.559L115.195 122.955Z" fill="#6F00C9"/>
<path d="M105.591 118.377L95.9875 113.799L91.4094 123.402L101.013 127.981L105.591 118.377Z" fill="#6F00C9"/>
<path d="M95.9875 113.799L86.3836 109.22L81.8055 118.824L91.4094 123.402L95.9875 113.799Z" fill="#6F00C9"/>
<path d="M86.3836 109.22L76.7797 104.642L72.2016 114.246L81.8055 118.824L86.3836 109.22Z" fill="#6F00C9"/>
<path d="M76.7797 104.642L67.1758 100.064L62.5977 109.668L72.2016 114.246L76.7797 104.642Z" fill="#6F00C9"/>
<path d="M67.1758 100.064L57.572 95.4861L52.9939 105.09L62.5977 109.668L67.1758 100.064Z" fill="#6F00C9"/>
<path d="M57.572 95.4861L47.9681 90.908L43.39 100.512L52.9939 105.09L57.572 95.4861Z" fill="#6F00C9"/>
<path d="M47.9681 90.908L38.3642 86.3299L33.7861 95.9338L43.39 100.512L47.9681 90.908Z" fill="#6F00C9"/>
<path d="M38.3642 86.3299L28.7603 81.7518L24.1822 91.3557L33.7861 95.9338L38.3642 86.3299Z" fill="#6F00C9"/>
<path d="M28.7603 81.7518L19.1564 77.1737L14.5783 86.7776L24.1822 91.3557L28.7603 81.7518Z" fill="#6F00C9"/>
<path d="M19.1564 77.1737L9.55257 72.5956L4.97445 82.1994L14.5783 86.7776L19.1564 77.1737Z" fill="#6F00C9"/>
<path d="M9.55257 72.5956L-0.0513083 68.0174L-4.62942 77.6213L4.97445 82.1994L9.55257 72.5956Z" fill="#6F00C9"/>
<path d="M-0.0513083 68.0174L-9.65519 63.4393L-14.2333 73.0432L-4.62942 77.6213L-0.0513083 68.0174Z" fill="#6F00C9"/>
<path d="M-9.65519 63.4393L-19.2591 58.8612L-23.8372 68.4651L-14.2333 73.0432L-9.65519 63.4393Z" fill="#6F00C9"/>
<path d="M-19.2591 58.8612L-28.863 54.2831L-33.4411 63.887L-23.8372 68.4651L-19.2591 58.8612Z" fill="#6F00C9"/>
<path d="M-28.863 54.2831L-38.4668 49.705L-43.0449 59.3089L-33.4411 63.887L-28.863 54.2831Z" fill="#6F00C9"/>
<path d="M-38.4668 49.705L-48.0707 45.1269L-52.6488 54.7308L-43.0449 59.3089L-38.4668 49.705Z" fill="#6F00C9"/>
<path d="M-48.0707 45.1269L-57.6746 40.5488L-62.2527 50.1527L-52.6488 54.7308L-48.0707 45.1269Z" fill="#6F00C9"/>
<path d="M-57.6746 40.5488L-67.2785 35.9707L-71.8566 45.5745L-62.2527 50.1527L-57.6746 40.5488Z" fill="#6F00C9"/>
<path d="M196.604 149.976L187.001 145.398L182.422 155.002L192.026 159.58L196.604 149.976Z" fill="#540095"/>
<path d="M187.001 145.398L177.397 140.82L172.819 150.423L182.422 155.002L187.001 145.398Z" fill="#540095"/>
<path d="M177.397 140.82L167.793 136.241L163.215 145.845L172.819 150.423L177.397 140.82Z" fill="#540095"/>
<path d="M167.793 136.241L158.189 131.663L153.611 141.267L163.215 145.845L167.793 136.241Z" fill="#540095"/>
<path d="M158.189 131.663L148.585 127.085L144.007 136.689L153.611 141.267L158.189 131.663Z" fill="#540095"/>
<path d="M148.585 127.085L138.981 122.507L134.403 132.111L144.007 136.689L148.585 127.085Z" fill="#6F00C9"/>
<path d="M138.981 122.507L129.377 117.929L124.799 127.533L134.403 132.111L138.981 122.507Z" fill="#6F00C9"/>
<path d="M129.377 117.929L119.773 113.351L115.195 122.955L124.799 127.533L129.377 117.929Z" fill="#6F00C9"/>
<path d="M119.773 113.351L110.169 108.773L105.591 118.377L115.195 122.955L119.773 113.351Z" fill="#6F00C9"/>
<path d="M110.169 108.773L100.566 104.195L95.9875 113.799L105.591 118.377L110.169 108.773Z" fill="#6F00C9"/>
<path d="M100.566 104.195L90.9617 99.6166L86.3836 109.22L95.9875 113.799L100.566 104.195Z" fill="#6F00C9"/>
<path d="M90.9617 99.6166L81.3579 95.0385L76.7797 104.642L86.3836 109.22L90.9617 99.6166Z" fill="#6F00C9"/>
<path d="M81.3579 95.0385L71.754 90.4603L67.1758 100.064L76.7797 104.642L81.3579 95.0385Z" fill="#6F00C9"/>
<path d="M71.754 90.4603L62.1501 85.8822L57.572 95.4861L67.1758 100.064L71.754 90.4603Z" fill="#6F00C9"/>
<path d="M62.1501 85.8822L52.5462 81.3041L47.9681 90.908L57.572 95.4861L62.1501 85.8822Z" fill="#6F00C9"/>
<path d="M52.5462 81.3041L42.9423 76.726L38.3642 86.3299L47.9681 90.908L52.5462 81.3041Z" fill="#6F00C9"/>
<path d="M42.9423 76.726L33.3384 72.1479L28.7603 81.7518L38.3642 86.3299L42.9423 76.726Z" fill="#6F00C9"/>
<path d="M33.3384 72.1479L23.7346 67.5698L19.1564 77.1737L28.7603 81.7518L33.3384 72.1479Z" fill="#6F00C9"/>
<path d="M23.7346 67.5698L14.1307 62.9917L9.55257 72.5956L19.1564 77.1737L23.7346 67.5698Z" fill="#6F00C9"/>
<path d="M14.1307 62.9917L4.52681 58.4136L-0.0513083 68.0174L9.55257 72.5956L14.1307 62.9917Z" fill="#6F00C9"/>
<path d="M4.52681 58.4136L-5.07708 53.8354L-9.65519 63.4393L-0.0513083 68.0174L4.52681 58.4136Z" fill="#6F00C9"/>
<path d="M-5.07708 53.8354L-14.681 49.2573L-19.2591 58.8612L-9.65519 63.4393L-5.07708 53.8354Z" fill="#6F00C9"/>
<path d="M-14.681 49.2573L-24.2848 44.6792L-28.863 54.2831L-19.2591 58.8612L-14.681 49.2573Z" fill="#6F00C9"/>
<path d="M-24.2848 44.6792L-33.8887 40.1011L-38.4668 49.705L-28.863 54.2831L-24.2848 44.6792Z" fill="#6F00C9"/>
<path d="M-33.8887 40.1011L-43.4926 35.523L-48.0707 45.1269L-38.4668 49.705L-33.8887 40.1011Z" fill="#6F00C9"/>
<path d="M-43.4926 35.523L-53.0965 30.9449L-57.6746 40.5488L-48.0707 45.1269L-43.4926 35.523Z" fill="#6F00C9"/>
<path d="M-53.0965 30.9449L-62.7004 26.3668L-67.2785 35.9707L-57.6746 40.5488L-53.0965 30.9449Z" fill="#6F00C9"/>
<path d="M201.182 140.372L191.579 135.794L187.001 145.398L196.604 149.976L201.182 140.372Z" fill="#5A0098"/>
<path d="M191.579 135.794L181.975 131.216L177.397 140.82L187.001 145.398L191.579 135.794Z" fill="#540095"/>
<path d="M181.975 131.216L172.371 126.638L167.793 136.241L177.397 140.82L181.975 131.216Z" fill="#540095"/>
<path d="M172.371 126.638L162.767 122.059L158.189 131.663L167.793 136.241L172.371 126.638Z" fill="#540095"/>
<path d="M162.767 122.059L153.163 117.481L148.585 127.085L158.189 131.663L162.767 122.059Z" fill="#540095"/>
<path d="M153.163 117.481L143.559 112.903L138.981 122.507L148.585 127.085L153.163 117.481Z" fill="#6F00C9"/>
<path d="M143.559 112.903L133.955 108.325L129.377 117.929L138.981 122.507L143.559 112.903Z" fill="#6F00C9"/>
<path d="M133.955 108.325L124.351 103.747L119.773 113.351L129.377 117.929L133.955 108.325Z" fill="#6F00C9"/>
<path d="M124.351 103.747L114.748 99.1689L110.169 108.773L119.773 113.351L124.351 103.747Z" fill="#6F00C9"/>
<path d="M114.748 99.1689L105.144 94.5908L100.566 104.195L110.169 108.773L114.748 99.1689Z" fill="#6F00C9"/>
<path d="M105.144 94.5908L95.5398 90.0127L90.9617 99.6166L100.566 104.195L105.144 94.5908Z" fill="#6F00C9"/>
<path d="M95.5398 90.0127L85.936 85.4346L81.3579 95.0385L90.9617 99.6166L95.5398 90.0127Z" fill="#6F00C9"/>
<path d="M85.936 85.4346L76.3321 80.8565L71.754 90.4603L81.3579 95.0385L85.936 85.4346Z" fill="#6F00C9"/>
<path d="M76.3321 80.8565L66.7282 76.2784L62.1501 85.8822L71.754 90.4603L76.3321 80.8565Z" fill="#6F00C9"/>
<path d="M66.7282 76.2784L57.1243 71.7002L52.5462 81.3041L62.1501 85.8822L66.7282 76.2784Z" fill="#6F00C9"/>
<path d="M57.1243 71.7002L47.5204 67.1221L42.9423 76.726L52.5462 81.3041L57.1243 71.7002Z" fill="#6F00C9"/>
<path d="M47.5204 67.1221L37.9165 62.544L33.3384 72.1479L42.9423 76.726L47.5204 67.1221Z" fill="#6F00C9"/>
<path d="M37.9165 62.544L28.3127 57.9659L23.7346 67.5698L33.3384 72.1479L37.9165 62.544Z" fill="#6F00C9"/>
<path d="M28.3127 57.9659L18.7088 53.3878L14.1307 62.9917L23.7346 67.5698L28.3127 57.9659Z" fill="#6F00C9"/>
<path d="M18.7088 53.3878L9.10492 48.8097L4.52681 58.4136L14.1307 62.9917L18.7088 53.3878Z" fill="#6F00C9"/>
<path d="M9.10492 48.8097L-0.498965 44.2316L-5.07708 53.8354L4.52681 58.4136L9.10492 48.8097Z" fill="#6F00C9"/>
<path d="M-0.498965 44.2316L-10.1028 39.6535L-14.681 49.2573L-5.07708 53.8354L-0.498965 44.2316Z" fill="#6F00C9"/>
<path d="M-10.1028 39.6535L-19.7067 35.0753L-24.2848 44.6792L-14.681 49.2573L-10.1028 39.6535Z" fill="#6F00C9"/>
<path d="M-19.7067 35.0753L-29.3106 30.4972L-33.8887 40.1011L-24.2848 44.6792L-19.7067 35.0753Z" fill="#6F00C9"/>
<path d="M-29.3106 30.4972L-38.9145 25.9191L-43.4926 35.523L-33.8887 40.1011L-29.3106 30.4972Z" fill="#6F00C9"/>
<path d="M-38.9145 25.9191L-48.5184 21.341L-53.0965 30.9449L-43.4926 35.523L-38.9145 25.9191Z" fill="#6F00C9"/>
<path d="M196.157 126.19L186.553 121.612L181.975 131.216L191.579 135.794L196.157 126.19Z" fill="#5A0098"/>
<path d="M186.553 121.612L176.949 117.034L172.371 126.638L181.975 131.216L186.553 121.612Z" fill="#540095"/>
<path d="M176.949 117.034L167.345 112.456L162.767 122.059L172.371 126.638L176.949 117.034Z" fill="#540095"/>
<path d="M167.345 112.456L157.741 107.877L153.163 117.481L162.767 122.059L167.345 112.456Z" fill="#540095"/>
<path d="M157.741 107.877L148.137 103.299L143.559 112.903L153.163 117.481L157.741 107.877Z" fill="#540095"/>
<path d="M148.137 103.299L138.533 98.7213L133.955 108.325L143.559 112.903L148.137 103.299Z" fill="#6F00C9"/>
<path d="M138.533 98.7213L128.93 94.1432L124.351 103.747L133.955 108.325L138.533 98.7213Z" fill="#6F00C9"/>
<path d="M128.93 94.1432L119.326 89.565L114.748 99.1689L124.351 103.747L128.93 94.1432Z" fill="#4B007F"/>
<path d="M119.326 89.565L109.722 84.9869L105.144 94.5908L114.748 99.1689L119.326 89.565Z" fill="#4B007F"/>
<path d="M109.722 84.9869L100.118 80.4088L95.5398 90.0127L105.144 94.5908L109.722 84.9869Z" fill="#4B007F"/>
<path d="M100.118 80.4088L90.5141 75.8307L85.936 85.4346L95.5398 90.0127L100.118 80.4088Z" fill="#4B007F"/>
<path d="M90.5141 75.8307L80.9102 71.2526L76.3321 80.8565L85.936 85.4346L90.5141 75.8307Z" fill="#6F00C9"/>
<path d="M80.9102 71.2526L71.3063 66.6745L66.7282 76.2784L76.3321 80.8565L80.9102 71.2526Z" fill="#6F00C9"/>
<path d="M71.3063 66.6745L61.7024 62.0964L57.1243 71.7002L66.7282 76.2784L71.3063 66.6745Z" fill="#6F00C9"/>
<path d="M61.7024 62.0964L52.0985 57.5183L47.5204 67.1221L57.1243 71.7002L61.7024 62.0964Z" fill="#6F00C9"/>
<path d="M52.0985 57.5183L42.4947 52.9401L37.9165 62.544L47.5204 67.1221L52.0985 57.5183Z" fill="#6F00C9"/>
<path d="M42.4947 52.9401L32.8908 48.362L28.3127 57.9659L37.9165 62.544L42.4947 52.9401Z" fill="#6F00C9"/>
<path d="M32.8908 48.362L23.2869 43.7839L18.7088 53.3878L28.3127 57.9659L32.8908 48.362Z" fill="#6F00C9"/>
<path d="M23.2869 43.7839L13.683 39.2058L9.10492 48.8097L18.7088 53.3878L23.2869 43.7839Z" fill="#6F00C9"/>
<path d="M13.683 39.2058L4.07915 34.6277L-0.498965 44.2316L9.10492 48.8097L13.683 39.2058Z" fill="#6F00C9"/>
<path d="M4.07915 34.6277L-5.52474 30.0496L-10.1028 39.6535L-0.498965 44.2316L4.07915 34.6277Z" fill="#6F00C9"/>
<path d="M-5.52474 30.0496L-15.1286 25.4715L-19.7067 35.0753L-10.1028 39.6535L-5.52474 30.0496Z" fill="#6F00C9"/>
<path d="M-15.1286 25.4715L-24.7325 20.8934L-29.3106 30.4972L-19.7067 35.0753L-15.1286 25.4715Z" fill="#6F00C9"/>
<path d="M-24.7325 20.8934L-34.3364 16.3152L-38.9145 25.9191L-29.3106 30.4972L-24.7325 20.8934Z" fill="#6F00C9"/>
<path d="M191.131 112.008L181.527 107.43L176.949 117.034L186.553 121.612L191.131 112.008Z" fill="#5A0098"/>
<path d="M181.527 107.43L171.923 102.852L167.345 112.456L176.949 117.034L181.527 107.43Z" fill="#540095"/>
<path d="M171.923 102.852L162.319 98.2736L157.741 107.877L167.345 112.456L171.923 102.852Z" fill="#540095"/>
<path d="M162.319 98.2736L152.715 93.6955L148.137 103.299L157.741 107.877L162.319 98.2736Z" fill="#540095"/>
<path d="M152.715 93.6955L143.112 89.1174L138.533 98.7213L148.137 103.299L152.715 93.6955Z" fill="#6400B4"/>
<path d="M143.112 89.1174L133.508 84.5393L128.93 94.1432L138.533 98.7213L143.112 89.1174Z" fill="#4B007F"/>
<path d="M133.508 84.5393L123.904 79.9612L119.326 89.565L128.93 94.1432L133.508 84.5393Z" fill="#4B007F"/>
<path d="M123.904 79.9612L114.3 75.3831L109.722 84.9869L119.326 89.565L123.904 79.9612Z" fill="#4B007F"/>
<path d="M114.3 75.3831L104.696 70.8049L100.118 80.4088L109.722 84.9869L114.3 75.3831Z" fill="#4B007F"/>
<path d="M104.696 70.8049L95.0922 66.2268L90.5141 75.8307L100.118 80.4088L104.696 70.8049Z" fill="#4B007F"/>
<path d="M95.0922 66.2268L85.4883 61.6487L80.9102 71.2526L90.5141 75.8307L95.0922 66.2268Z" fill="#6F00C9"/>
<path d="M85.4883 61.6487L75.8844 57.0706L71.3063 66.6745L80.9102 71.2526L85.4883 61.6487Z" fill="#6F00C9"/>
<path d="M75.8844 57.0706L66.2805 52.4925L61.7024 62.0964L71.3063 66.6745L75.8844 57.0706Z" fill="#6F00C9"/>
<path d="M66.2805 52.4925L56.6767 47.9144L52.0985 57.5183L61.7024 62.0964L66.2805 52.4925Z" fill="#6F00C9"/>
<path d="M56.6767 47.9144L47.0728 43.3363L42.4947 52.9401L52.0985 57.5183L56.6767 47.9144Z" fill="#6F00C9"/>
<path d="M47.0728 43.3363L37.4689 38.7582L32.8908 48.362L42.4947 52.9401L47.0728 43.3363Z" fill="#6F00C9"/>
<path d="M37.4689 38.7582L27.865 34.18L23.2869 43.7839L32.8908 48.362L37.4689 38.7582Z" fill="#6F00C9"/>
<path d="M27.865 34.18L18.2611 29.6019L13.683 39.2058L23.2869 43.7839L27.865 34.18Z" fill="#6F00C9"/>
<path d="M18.2611 29.6019L8.65726 25.0238L4.07915 34.6277L13.683 39.2058L18.2611 29.6019Z" fill="#6F00C9"/>
<path d="M8.65726 25.0238L-0.946624 20.4457L-5.52474 30.0496L4.07915 34.6277L8.65726 25.0238Z" fill="#6F00C9"/>
<path d="M-0.946624 20.4457L-10.5505 15.8676L-15.1286 25.4715L-5.52474 30.0496L-0.946624 20.4457Z" fill="#6F00C9"/>
<path d="M-10.5505 15.8676L-20.1544 11.2895L-24.7325 20.8934L-15.1286 25.4715L-10.5505 15.8676Z" fill="#6F00C9"/>
<path d="M186.105 97.826L176.501 93.2478L171.923 102.852L181.527 107.43L186.105 97.826Z" fill="#5A0098"/>
<path d="M176.501 93.2478L166.897 88.6697L162.319 98.2736L171.923 102.852L176.501 93.2478Z" fill="#540095"/>
<path d="M166.897 88.6697L157.294 84.0916L152.715 93.6955L162.319 98.2736L166.897 88.6697Z" fill="#540095"/>
<path d="M157.294 84.0916L147.69 79.5135L143.112 89.1174L152.715 93.6955L157.294 84.0916Z" fill="#540095"/>
<path d="M147.69 79.5135L138.086 74.9354L133.508 84.5393L143.112 89.1174L147.69 79.5135Z" fill="#4B007F"/>
<path d="M138.086 74.9354L128.482 70.3573L123.904 79.9612L133.508 84.5393L138.086 74.9354Z" fill="#4B007F"/>
<path d="M128.482 70.3573L118.878 65.7792L114.3 75.3831L123.904 79.9612L128.482 70.3573Z" fill="#4B007F"/>
<path d="M118.878 65.7792L109.274 61.2011L104.696 70.8049L114.3 75.3831L118.878 65.7792Z" fill="#4B007F"/>
<path d="M109.274 61.2011L99.6703 56.623L95.0922 66.2268L104.696 70.8049L109.274 61.2011Z" fill="#4B007F"/>
<path d="M99.6703 56.623L90.0664 52.0448L85.4883 61.6487L95.0922 66.2268L99.6703 56.623Z" fill="#6F00C9"/>
<path d="M90.0664 52.0448L80.4625 47.4667L75.8844 57.0706L85.4883 61.6487L90.0664 52.0448Z" fill="#6F00C9"/>
<path d="M80.4625 47.4667L70.8586 42.8886L66.2805 52.4925L75.8844 57.0706L80.4625 47.4667Z" fill="#6F00C9"/>
<path d="M70.8586 42.8886L61.2548 38.3105L56.6767 47.9144L66.2805 52.4925L70.8586 42.8886Z" fill="#6F00C9"/>
<path d="M61.2548 38.3105L51.6509 33.7324L47.0728 43.3363L56.6767 47.9144L61.2548 38.3105Z" fill="#6F00C9"/>
<path d="M51.6509 33.7324L42.047 29.1543L37.4689 38.7582L47.0728 43.3363L51.6509 33.7324Z" fill="#6F00C9"/>
<path d="M42.047 29.1543L32.4431 24.5762L27.865 34.18L37.4689 38.7582L42.047 29.1543Z" fill="#6F00C9"/>
<path d="M32.4431 24.5762L22.8393 19.998L18.2611 29.6019L27.865 34.18L32.4431 24.5762Z" fill="#6F00C9"/>
<path d="M22.8393 19.998L13.2354 15.4199L8.65726 25.0238L18.2611 29.6019L22.8393 19.998Z" fill="#6F00C9"/>
<path d="M13.2354 15.4199L3.63149 10.8418L-0.946624 20.4457L8.65726 25.0238L13.2354 15.4199Z" fill="#6F00C9"/>
<path d="M3.63149 10.8418L-5.97239 6.26371L-10.5505 15.8676L-0.946624 20.4457L3.63149 10.8418Z" fill="#6F00C9"/>
<path d="M171.476 79.0658L161.872 74.4877L157.294 84.0916L166.897 88.6697L171.476 79.0658Z" fill="#540095"/>
<path d="M161.872 74.4877L152.268 69.9096L147.69 79.5135L157.294 84.0916L161.872 74.4877Z" fill="#540095"/>
<path d="M152.268 69.9096L142.664 65.3315L138.086 74.9354L147.69 79.5135L152.268 69.9096Z" fill="#38005D"/>
<path d="M142.664 65.3315L133.06 60.7534L128.482 70.3573L138.086 74.9354L142.664 65.3315Z" fill="#4B007F"/>
<path d="M133.06 60.7534L123.456 56.1753L118.878 65.7792L128.482 70.3573L133.06 60.7534Z" fill="#4B007F"/>
<path d="M123.456 56.1753L113.852 51.5972L109.274 61.2011L118.878 65.7792L123.456 56.1753Z" fill="#4B007F"/>
<path d="M113.852 51.5972L104.248 47.0191L99.6703 56.623L109.274 61.2011L113.852 51.5972Z" fill="#6F00C9"/>
<path d="M104.248 47.0191L94.6445 42.441L90.0664 52.0448L99.6703 56.623L104.248 47.0191Z" fill="#6F00C9"/>
<path d="M94.6445 42.441L85.0407 37.8628L80.4625 47.4667L90.0664 52.0448L94.6445 42.441Z" fill="#6F00C9"/>
<path d="M85.0407 37.8628L75.4368 33.2847L70.8586 42.8886L80.4625 47.4667L85.0407 37.8628Z" fill="#6F00C9"/>
<path d="M75.4368 33.2847L65.8329 28.7066L61.2548 38.3105L70.8586 42.8886L75.4368 33.2847Z" fill="#6F00C9"/>
<path d="M65.8329 28.7066L56.229 24.1285L51.6509 33.7324L61.2548 38.3105L65.8329 28.7066Z" fill="#6F00C9"/>
<path d="M56.229 24.1285L46.6251 19.5504L42.047 29.1543L51.6509 33.7324L56.229 24.1285Z" fill="#6F00C9"/>
<path d="M46.6251 19.5504L37.0212 14.9723L32.4431 24.5762L42.047 29.1543L46.6251 19.5504Z" fill="#6F00C9"/>
<path d="M37.0212 14.9723L27.4174 10.3942L22.8393 19.998L32.4431 24.5762L37.0212 14.9723Z" fill="#6F00C9"/>
<path d="M27.4174 10.3942L17.8135 5.81605L13.2354 15.4199L22.8393 19.998L27.4174 10.3942Z" fill="#6F00C9"/>
<path d="M17.8135 5.81605L8.2096 1.23794L3.63149 10.8418L13.2354 15.4199L17.8135 5.81605Z" fill="#6F00C9"/>
<path d="M166.45 64.8839L156.846 60.3057L152.268 69.9096L161.872 74.4877L166.45 64.8839Z" fill="#5A0098"/>
<path d="M156.846 60.3057L147.242 55.7276L142.664 65.3315L152.268 69.9096L156.846 60.3057Z" fill="#4E008A"/>
<path d="M147.242 55.7276L137.638 51.1495L133.06 60.7534L142.664 65.3315L147.242 55.7276Z" fill="#38005D"/>
<path d="M137.638 51.1495L128.034 46.5714L123.456 56.1753L133.06 60.7534L137.638 51.1495Z" fill="#4B007F"/>
<path d="M128.034 46.5714L118.43 41.9933L113.852 51.5972L123.456 56.1753L128.034 46.5714Z" fill="#6F00C9"/>
<path d="M118.43 41.9933L108.827 37.4152L104.248 47.0191L113.852 51.5972L118.43 41.9933Z" fill="#6F00C9"/>
<path d="M108.827 37.4152L99.2226 32.8371L94.6445 42.441L104.248 47.0191L108.827 37.4152Z" fill="#6F00C9"/>
<path d="M99.2226 32.8371L89.6188 28.259L85.0407 37.8628L94.6445 42.441L99.2226 32.8371Z" fill="#6F00C9"/>
<path d="M89.6188 28.259L80.0149 23.6808L75.4368 33.2847L85.0407 37.8628L89.6188 28.259Z" fill="#6F00C9"/>
<path d="M80.0149 23.6808L70.411 19.1027L65.8329 28.7066L75.4368 33.2847L80.0149 23.6808Z" fill="#6F00C9"/>
<path d="M70.411 19.1027L60.8071 14.5246L56.229 24.1285L65.8329 28.7066L70.411 19.1027Z" fill="#6F00C9"/>
<path d="M60.8071 14.5246L51.2032 9.94651L46.6251 19.5504L56.229 24.1285L60.8071 14.5246Z" fill="#6F00C9"/>
<path d="M51.2032 9.94651L41.5994 5.3684L37.0212 14.9723L46.6251 19.5504L51.2032 9.94651Z" fill="#6F00C9"/>
<path d="M41.5994 5.3684L31.9955 0.790289L27.4174 10.3942L37.0212 14.9723L41.5994 5.3684Z" fill="#6F00C9"/>
<path d="M142.216 41.5456L132.612 36.9675L128.034 46.5714L137.638 51.1495L142.216 41.5456Z" fill="#64089E"/>
<path d="M132.612 36.9675L123.009 32.3894L118.43 41.9933L128.034 46.5714L132.612 36.9675Z" fill="#6F00C9"/>
<path d="M123.009 32.3894L113.405 27.8113L108.827 37.4152L118.43 41.9933L123.009 32.3894Z" fill="#6F00C9"/>
<path d="M113.405 27.8113L103.801 23.2332L99.2226 32.8371L108.827 37.4152L113.405 27.8113Z" fill="#6F00C9"/>
<path d="M103.801 23.2332L94.1969 18.6551L89.6188 28.259L99.2226 32.8371L103.801 23.2332Z" fill="#6F00C9"/>
<path d="M94.1969 18.6551L84.593 14.077L80.0149 23.6808L89.6188 28.259L94.1969 18.6551Z" fill="#6F00C9"/>
<path d="M84.593 14.077L74.9891 9.49886L70.411 19.1027L80.0149 23.6808L84.593 14.077Z" fill="#6F00C9"/>
<path d="M74.9891 9.49886L65.3852 4.92074L60.8071 14.5246L70.411 19.1027L74.9891 9.49886Z" fill="#6F00C9"/>
<path d="M65.3852 4.92074L55.7813 0.342633L51.2032 9.94651L60.8071 14.5246L65.3852 4.92074Z" fill="#64089E"/>
</g>
</svg>
